<svg width="34" height="54" viewBox="0 0 34 54" fill="none" xmlns="http://www.w3.org/2000/svg">
<path d="M13.1856 27.7764C13.2081 27.8796 13.2288 27.9831 13.2477 28.087C13.3115 28.442 13.4216 28.6258 13.4652 28.9841C13.5409 29.6068 13.3322 30.5846 13.3314 30.5886C13.3325 30.5896 13.5019 30.7378 13.5656 30.8646C13.6885 31.1092 13.5663 31.5692 13.5656 31.572C13.5644 31.5727 13.3993 31.6888 13.3314 31.7962C13.1784 32.0383 13.3305 32.5353 13.3314 32.5381L13.1306 32.6243V33.1419C13.1302 33.1425 12.955 33.3931 12.8795 33.5732C12.7637 33.8501 12.7292 34.3292 12.729 34.3323C12.7281 34.3333 12.456 34.6177 12.3776 35.0052C12.2991 35.3934 11.9162 35.8448 11.813 36.3681C10.7924 37.8173 10.3591 39.0316 10.2641 40.664H22.8907C22.8014 39.1304 22.1981 37.7397 21.2561 36.6725C21.2553 36.6682 21.055 35.5349 20.6936 34.9189C20.4423 34.4907 19.8939 33.939 19.8904 33.9355L19.5892 33.28L19.6561 32.2275L19.539 31.5029L19.3884 30.5886L19.3382 28.7771L19.6394 28.4665V28.0179L19.7545 27.7764H25.5167C25.6556 27.7764 25.7936 27.7799 25.9308 27.7867L25.965 27.7885C26.0458 27.7928 26.1264 27.7983 26.2067 27.805L26.2211 27.8061L26.2392 27.8077L26.2756 27.8109C26.3046 27.8136 26.3335 27.8164 26.3623 27.8193L26.3834 27.8215C26.4491 27.8284 26.5148 27.8361 26.5804 27.8445L26.5926 27.8461C26.6288 27.8508 26.6649 27.8558 26.701 27.861L26.7135 27.8628L26.7519 27.8684C26.7815 27.8729 26.8111 27.8776 26.8406 27.8824L26.8573 27.885L26.8683 27.8868C26.8993 27.892 26.9303 27.8972 26.9612 27.9027L26.9882 27.9076L27.0146 27.9123C27.0609 27.9208 27.107 27.9297 27.1529 27.939L27.1678 27.942C27.1815 27.9447 27.1951 27.9475 27.2087 27.9504L27.2196 27.9527L27.2518 27.9595L27.2725 27.964L27.2973 27.9694L27.3248 27.9755L27.355 27.9823L27.4145 27.9962L27.4243 27.9984C27.471 28.0095 27.5175 28.021 27.5639 28.0328L27.576 28.0359L27.5836 28.0378C27.6089 28.0444 27.6342 28.0511 27.6595 28.0578L27.6813 28.0638L27.7093 28.0714L27.7288 28.0768C27.76 28.0854 27.7911 28.0943 27.8221 28.1033L27.8296 28.1055C27.8775 28.1194 27.9253 28.1338 27.9729 28.1487L27.9792 28.1506L28.0309 28.1669C28.1254 28.1971 28.2191 28.229 28.3122 28.2625L28.3267 28.2677C28.3355 28.2709 28.3443 28.2741 28.3531 28.2773L28.3751 28.2853L28.407 28.2972C28.4127 28.2993 28.4185 28.3015 28.4243 28.3037L28.4448 28.3115L28.4741 28.3226C28.5062 28.3349 28.5382 28.3474 28.5701 28.3601L28.5877 28.3671C28.5992 28.3717 28.6106 28.3763 28.622 28.381C28.7278 28.4239 28.8328 28.469 28.9368 28.5164L28.9499 28.5224C28.9749 28.5338 28.9998 28.5454 29.0246 28.557L29.0627 28.575C29.0947 28.5901 29.1265 28.6055 29.1583 28.6212C29.206 28.6446 29.2536 28.6685 29.3009 28.6929C29.314 28.6996 29.3269 28.7063 29.3399 28.7131C29.3578 28.7224 29.3756 28.7318 29.3935 28.7412C29.4073 28.7485 29.421 28.7559 29.4347 28.7633L29.4807 28.7882C29.4959 28.7965 29.511 28.8048 29.5261 28.8132C29.5415 28.8217 29.5569 28.8302 29.5722 28.8388C29.5872 28.8473 29.6021 28.8558 29.6171 28.8643C29.6315 28.8725 29.6458 28.8808 29.6601 28.889L29.7063 28.9159C29.7208 28.9244 29.7354 28.933 29.7499 28.9416C29.764 28.9501 29.7781 28.9585 29.7921 28.967C29.8078 28.9765 29.8235 28.986 29.8392 28.9955C29.8534 29.0042 29.8675 29.013 29.8816 29.0217C29.896 29.0306 29.9105 29.0396 29.9249 29.0487C29.9395 29.0579 29.954 29.0671 29.9686 29.0764C29.983 29.0855 29.9974 29.0947 30.0118 29.104C30.0269 29.1138 30.042 29.1236 30.057 29.1335C30.0839 29.151 30.1106 29.1687 30.1371 29.1866C30.1535 29.1975 30.1699 29.2086 30.1862 29.2197C30.198 29.2277 30.2099 29.2358 30.2216 29.244C30.2372 29.2547 30.2527 29.2654 30.2681 29.2762L30.3071 29.3036C30.3229 29.3148 30.3387 29.326 30.3545 29.3373L30.3889 29.3622C30.4169 29.3823 30.4448 29.4028 30.4725 29.4235C30.4883 29.4352 30.5041 29.447 30.5199 29.4589C30.5315 29.4677 30.5431 29.4766 30.5548 29.4854C30.5701 29.4971 30.5854 29.5089 30.6007 29.5206L30.6354 29.5477C30.6515 29.5602 30.6674 29.5728 30.6834 29.5854L30.7126 29.6087C30.7296 29.6223 30.7466 29.636 30.7636 29.6497C30.7741 29.6583 30.7845 29.6669 30.795 29.6755C30.8106 29.6882 30.8262 29.7011 30.8417 29.714C30.853 29.7234 30.8642 29.7329 30.8755 29.7424C30.8902 29.7547 30.9048 29.7671 30.9194 29.7795C30.9326 29.7908 30.9458 29.8021 30.9589 29.8135C30.9711 29.8239 30.9832 29.8344 30.9953 29.845C31.0084 29.8565 31.0215 29.868 31.0346 29.8795C31.0468 29.8903 31.0591 29.9012 31.0713 29.912C31.0973 29.9353 31.1232 29.9587 31.1489 29.9824C31.1627 29.995 31.1763 30.0076 31.19 30.0203C31.2016 30.0311 31.2132 30.0419 31.2249 30.0528C31.2374 30.0644 31.2495 30.0762 31.2621 30.088C31.2751 30.1002 31.2876 30.1124 31.3006 30.1247C31.3123 30.1359 31.3236 30.1471 31.3354 30.1584C31.3484 30.1709 31.3609 30.1834 31.3739 30.1959C31.3861 30.2079 31.3982 30.2199 31.4099 30.2319C31.4225 30.2441 31.4347 30.2563 31.4468 30.2686C31.4585 30.2803 31.4698 30.2922 31.4816 30.304C31.4941 30.317 31.5071 30.3299 31.5197 30.3429C31.5306 30.3543 31.5415 30.3657 31.5524 30.3771C31.5653 30.3904 31.5779 30.4037 31.5905 30.4171L31.6232 30.4516L31.6609 30.4922C31.6713 30.5035 31.6818 30.5149 31.6919 30.5263C31.7053 30.5406 31.7182 30.5549 31.7312 30.5693C31.7425 30.5817 31.7534 30.5943 31.7647 30.6068L31.7974 30.6435C31.8108 30.6588 31.8242 30.674 31.8372 30.6893L31.8649 30.7212L31.9038 30.7665L31.9327 30.8007C31.9449 30.8156 31.9574 30.8307 31.97 30.8456C31.9792 30.8569 31.9889 30.8681 31.9981 30.8795C32.0111 30.8955 32.024 30.9115 32.037 30.9277C32.0458 30.9384 32.0542 30.949 32.063 30.9598C32.0752 30.9749 32.0869 30.99 32.099 31.0052C32.1087 31.0176 32.1183 31.0299 32.1284 31.0423C32.1376 31.0541 32.1464 31.0659 32.1556 31.0778C32.1681 31.0937 32.1803 31.1096 32.1924 31.1257L32.2176 31.1588C32.2301 31.1754 32.2427 31.1919 32.2549 31.2086C32.2628 31.2192 32.2708 31.2299 32.2783 31.2406C32.2913 31.2578 32.3039 31.275 32.3164 31.2923C32.3236 31.3026 32.3311 31.3129 32.3386 31.3231C32.3512 31.3409 32.3642 31.3587 32.3768 31.3766C32.3835 31.3865 32.3906 31.3965 32.3977 31.4065C32.4103 31.4246 32.4233 31.4428 32.4358 31.4611L32.4647 31.5038C32.4744 31.5176 32.4836 31.5315 32.4932 31.5454C32.5033 31.5604 32.5133 31.5755 32.523 31.5906C32.5326 31.6047 32.5418 31.6187 32.551 31.6329C32.5607 31.6473 32.5699 31.6619 32.5795 31.6764C32.5887 31.6911 32.5984 31.7058 32.608 31.7205C32.616 31.7335 32.6243 31.7466 32.6327 31.7596C32.6432 31.7762 32.6537 31.7928 32.6637 31.8094C32.6712 31.8214 32.6788 31.8334 32.6859 31.8454C32.6972 31.8634 32.7081 31.8814 32.719 31.8995L32.7379 31.9306C32.7492 31.9499 32.7609 31.9693 32.7722 31.9888L32.7898 32.0185C32.8015 32.039 32.8137 32.0594 32.8254 32.08C32.8317 32.0909 32.8376 32.1018 32.8438 32.1126C32.8543 32.1308 32.8648 32.1491 32.8748 32.1674L32.8987 32.2103C32.9079 32.2274 32.9176 32.2444 32.9268 32.2616L32.9368 32.2803C32.9498 32.3045 32.9628 32.3288 32.9754 32.3531C32.9837 32.3684 32.9917 32.3838 32.9997 32.3992L33.0223 32.4432C33.0311 32.4599 33.0395 32.4767 33.0478 32.4935L33.0705 32.5387C33.078 32.5535 33.0851 32.5683 33.0922 32.5831C33.1006 32.5997 33.1086 32.6163 33.117 32.6329C33.1249 32.6503 33.1333 32.6677 33.1417 32.6851C33.148 32.6986 33.1547 32.7122 33.1609 32.7258C33.1681 32.7415 33.1756 32.7573 33.1827 32.773C33.1907 32.7905 33.1991 32.808 33.207 32.8256C33.212 32.8373 33.2175 32.849 33.2225 32.8607L33.2502 32.9226C33.2514 32.9252 33.2523 32.9277 33.2535 32.9303C33.2946 33.0239 33.3339 33.1185 33.3716 33.2138C33.3729 33.2166 33.3737 33.2193 33.375 33.222C33.3867 33.2515 33.398 33.281 33.4094 33.3106C33.419 33.3354 33.4282 33.3603 33.4374 33.3851C33.4412 33.3945 33.4445 33.4039 33.4479 33.4133C33.4491 33.4164 33.4504 33.4194 33.4512 33.4225C33.4563 33.4353 33.4609 33.4481 33.4655 33.4609C33.4672 33.4652 33.4684 33.4695 33.4701 33.4738C33.4864 33.5191 33.5023 33.5645 33.5183 33.6101C33.5204 33.6168 33.5225 33.6234 33.525 33.6301C33.5283 33.6406 33.5321 33.651 33.5354 33.6616C33.5434 33.6852 33.5514 33.7088 33.5589 33.7325L33.569 33.7626C33.5765 33.787 33.5845 33.8114 33.592 33.8358C33.5949 33.8454 33.5979 33.8551 33.6012 33.8647L33.6075 33.8858C33.6259 33.9466 33.6439 34.0077 33.6615 34.069L33.6628 34.0738C33.6673 34.0894 33.6716 34.105 33.6758 34.1206C33.6833 34.1471 33.6904 34.1736 33.6976 34.2001C33.6997 34.2078 33.7017 34.2155 33.7034 34.2232C33.7105 34.2501 33.7177 34.2771 33.7244 34.3041C33.7428 34.3761 33.7604 34.4486 33.7767 34.5214C33.7843 34.554 33.7914 34.5867 33.7985 34.6195C33.8002 34.627 33.8019 34.6346 33.8031 34.6421L33.8207 34.7256L33.8245 34.7449C33.8262 34.7538 33.8282 34.7628 33.8299 34.7717L33.845 34.8499C33.8471 34.8618 33.8492 34.8737 33.8517 34.8856C33.8525 34.891 33.8534 34.8964 33.8546 34.9017C33.8563 34.9129 33.8584 34.9241 33.8605 34.9353L33.8655 34.9649C33.8735 35.01 33.881 35.0552 33.8882 35.1005L33.8907 35.1144L33.9045 35.2067C33.9444 35.4793 33.9718 35.7537 33.9866 36.0289C33.9879 36.0483 33.9887 36.0678 33.9895 36.0873C33.9904 36.1075 33.9916 36.1278 33.9925 36.148C33.9972 36.2673 33.9997 36.3867 34 36.5062H25.5167C28.6602 36.5062 31.4045 38.2691 32.8698 40.8883C33.2029 41.4834 33.4664 42.117 33.6548 42.776C33.6657 42.8132 33.6762 42.8503 33.6862 42.8879C33.7111 42.9792 33.7345 43.0709 33.7562 43.163C33.773 43.2326 33.7885 43.3021 33.8031 43.3721C33.8132 43.4187 33.8228 43.4653 33.832 43.512C33.8366 43.5358 33.8412 43.5591 33.8454 43.5825C33.8588 43.6533 33.871 43.7241 33.8827 43.795C33.9059 43.9378 33.9257 44.0813 33.9422 44.2252C33.9502 44.2977 33.9577 44.3698 33.964 44.4428C33.9686 44.4912 33.9724 44.54 33.9757 44.5888C33.9962 44.8657 34.0037 45.1435 33.9983 45.4211C33.9971 45.4967 33.995 45.5719 33.9916 45.6475C33.9891 45.7015 33.9862 45.7555 33.9832 45.8094C33.9795 45.8669 33.9757 45.9243 33.9711 45.9818L33.9623 46.0841C33.9589 46.1204 33.9552 46.1567 33.9514 46.193C33.9464 46.2435 33.9405 46.2941 33.9346 46.3442C33.9292 46.3882 33.9238 46.4323 33.9179 46.4763C33.9116 46.5221 33.9049 46.5679 33.8978 46.6137C33.883 46.7125 33.8665 46.811 33.8484 46.9091C33.8337 46.9869 33.8182 47.0642 33.8019 47.1415L33.7943 47.1756C33.7885 47.2033 33.7822 47.2309 33.7759 47.2585C33.76 47.329 33.7432 47.3994 33.7252 47.4693C33.7218 47.4836 33.7181 47.4983 33.7143 47.5125L33.7068 47.5406C33.7001 47.5669 33.6929 47.5933 33.6858 47.6196C33.6741 47.662 33.6624 47.7043 33.6502 47.7466C33.6477 47.7553 33.6452 47.7639 33.6427 47.773L33.6351 47.798C33.633 47.8054 33.6309 47.8127 33.6289 47.8196C33.6259 47.83 33.6226 47.8403 33.6196 47.8507C33.6121 47.8762 33.6041 47.9017 33.5962 47.9267C33.5777 47.9863 33.5585 48.0459 33.5388 48.1051C33.5304 48.1306 33.5216 48.1557 33.5128 48.1811C33.496 48.2311 33.4784 48.2808 33.46 48.3301C33.4512 48.3548 33.442 48.3798 33.4328 48.4044C33.4228 48.4308 33.4131 48.4567 33.4031 48.4826C33.4001 48.4904 33.3972 48.4982 33.3943 48.5055C33.3913 48.5129 33.3884 48.5198 33.3859 48.5267C33.3825 48.5349 33.3792 48.5431 33.3763 48.5513C33.3721 48.5617 33.3679 48.5725 33.3637 48.5828C33.3612 48.5889 33.3587 48.5953 33.3562 48.6018C33.3377 48.6472 33.3189 48.6925 33.3 48.7375L33.2962 48.7465C33.2845 48.775 33.2719 48.8035 33.2598 48.8316C33.2577 48.8364 33.2556 48.8411 33.2539 48.8454L33.2175 48.9271C33.2154 48.9323 33.2129 48.9374 33.2104 48.9426C33.2049 48.9551 33.1991 48.9677 33.1936 48.9802C33.1844 48.9996 33.1756 49.0195 33.1664 49.0389C33.1601 49.0519 33.1542 49.0648 33.148 49.0778L33.1203 49.1361C33.1157 49.1461 33.1107 49.1556 33.1061 49.1651C33.0956 49.1871 33.0847 49.2091 33.0742 49.2307C33.0684 49.2424 33.0625 49.2536 33.0571 49.2648C33.0474 49.2843 33.0378 49.3033 33.0277 49.3223C33.0202 49.337 33.0127 49.3521 33.0051 49.3668C32.9967 49.3827 32.9884 49.3992 32.9796 49.4156C32.9729 49.4285 32.9657 49.4419 32.9586 49.4549C32.949 49.4734 32.9389 49.4916 32.9293 49.5102C32.9238 49.5201 32.9184 49.53 32.9125 49.5404C32.9016 49.5607 32.8903 49.5814 32.879 49.6017C32.8727 49.6125 32.8669 49.6233 32.8606 49.6341C32.8497 49.6536 32.8388 49.6726 32.8279 49.692C32.8204 49.7054 32.8124 49.7188 32.8049 49.7317C32.7952 49.7482 32.786 49.7646 32.7764 49.781C32.7684 49.7948 32.7601 49.8082 32.7517 49.822C32.742 49.8389 32.732 49.8557 32.7219 49.8725C32.7148 49.8842 32.7073 49.8959 32.7002 49.908C32.6897 49.9252 32.6788 49.9429 32.6679 49.9607L32.644 49.9982L32.6122 50.0492C32.6034 50.063 32.5946 50.0768 32.5858 50.0902C32.5762 50.1049 32.5665 50.1196 32.5573 50.1343C32.5481 50.1485 32.5385 50.1624 32.5292 50.1766C32.5188 50.1926 32.5083 50.2086 32.4974 50.2246C32.489 50.2371 32.4802 50.2496 32.4719 50.2621C32.4618 50.2773 32.4517 50.2919 32.4417 50.3066L32.4065 50.3572C32.3985 50.3688 32.3902 50.3805 32.3822 50.3921C32.3722 50.4064 32.3617 50.4207 32.3516 50.4349L32.3206 50.4785C32.311 50.4915 32.3014 50.5049 32.2917 50.5178C32.2812 50.5321 32.2708 50.5463 32.2603 50.5602C32.2486 50.5766 32.236 50.593 32.2239 50.609C32.2155 50.6202 32.2071 50.6319 32.1983 50.6431L32.1606 50.6923C32.1522 50.7031 32.1439 50.7139 32.1359 50.7247C32.1237 50.7398 32.112 50.7545 32.1003 50.7696C32.0898 50.7826 32.0798 50.7956 32.0693 50.8085C32.0584 50.8223 32.0475 50.8357 32.0366 50.8496C32.0266 50.8621 32.0161 50.8746 32.006 50.8871C31.993 50.9031 31.9801 50.9187 31.9671 50.9342C31.9583 50.945 31.9495 50.9558 31.9403 50.9662C31.9285 50.9809 31.9164 50.9951 31.9042 51.0094C31.8933 51.0223 31.8825 51.0353 31.8716 51.0478C31.8611 51.0599 31.8506 51.0716 31.8401 51.0837C31.8171 51.1108 31.7936 51.1376 31.7698 51.164C31.7589 51.1761 31.748 51.1886 31.7367 51.2011L31.6998 51.2417C31.6885 51.2543 31.6768 51.2668 31.665 51.2793C31.6537 51.2918 31.6424 51.3044 31.6307 51.3165C31.6194 51.329 31.6077 51.3411 31.5963 51.3536C31.5842 51.3661 31.5725 51.3787 31.5603 51.3912C31.5482 51.4037 31.536 51.4167 31.5239 51.4292C31.5117 51.4417 31.5 51.4538 31.4879 51.4659C31.4761 51.478 31.4644 51.4901 31.4527 51.5018C31.4401 51.5147 31.4271 51.5277 31.4141 51.5406L31.3794 51.5752C31.3676 51.5868 31.3559 51.5981 31.3438 51.6097C31.3308 51.6227 31.3174 51.6357 31.3044 51.6482L31.2663 51.6849C31.2549 51.6953 31.2441 51.7056 31.233 51.716L31.1886 51.7575L31.155 51.7886C31.1439 51.7989 31.1327 51.8089 31.1215 51.8192L31.0771 51.8594C31.0657 51.8693 31.0543 51.8793 31.0429 51.8896C31.0289 51.9017 31.015 51.9142 31.0009 51.9268C30.9893 51.9367 30.9776 51.9471 30.9659 51.957C30.9516 51.9695 30.9373 51.9816 30.923 51.9942C30.9115 52.0037 30.8999 52.0136 30.8884 52.0231C30.8732 52.036 30.8579 52.049 30.8426 52.0615C30.8321 52.0706 30.8216 52.0792 30.8111 52.0879C30.7956 52.1004 30.7801 52.1134 30.7646 52.1259C30.7524 52.1358 30.7402 52.1458 30.7281 52.1553C30.7133 52.1674 30.6987 52.179 30.6839 52.1907L30.6475 52.2192C30.6334 52.2304 30.6193 52.2416 30.6051 52.2524L30.5614 52.2861C30.5486 52.2956 30.5359 52.3056 30.523 52.3151C30.5096 52.3254 30.496 52.3354 30.4825 52.3457L30.4419 52.3755C30.4277 52.3863 30.4134 52.3967 30.3992 52.4071L30.3575 52.4369L30.314 52.468C30.3002 52.4779 30.2864 52.4874 30.2725 52.4973L30.2315 52.5258C30.2175 52.5353 30.2034 52.5453 30.1893 52.5548L30.1413 52.5872C30.1293 52.595 30.1174 52.6032 30.1054 52.6114C30.0881 52.6226 30.0708 52.6343 30.0533 52.6455L30.0196 52.6675C30.0043 52.6775 29.9888 52.6874 29.9734 52.6969C29.9583 52.7068 29.9432 52.7163 29.9279 52.7258C29.9138 52.7349 29.8996 52.7435 29.8855 52.7522C29.8719 52.7608 29.8585 52.769 29.8449 52.7777C29.8288 52.7872 29.8128 52.7971 29.7967 52.8066C29.7826 52.8152 29.7684 52.8239 29.7542 52.8321C29.7379 52.842 29.7216 52.8515 29.7052 52.861C29.6931 52.8684 29.681 52.8753 29.6689 52.8826L29.6189 52.9111L29.5753 52.9357C29.5603 52.9444 29.5453 52.9526 29.5302 52.9608L29.4859 52.9854C29.4712 52.9936 29.4564 53.0014 29.4417 53.0096C29.4259 53.0178 29.4101 53.0264 29.3943 53.0347C29.3786 53.0433 29.3628 53.0515 29.3471 53.0597C29.3334 53.0666 29.3198 53.074 29.3061 53.0809C29.2888 53.0899 29.2715 53.0986 29.2541 53.1076C29.2401 53.1146 29.226 53.1219 29.212 53.1288L29.1625 53.1534C29.1484 53.1603 29.1344 53.1673 29.1203 53.1737C29.0963 53.1854 29.0723 53.1971 29.0482 53.2083L29.0345 53.2148C28.9754 53.2428 28.9158 53.2701 28.8559 53.2964C28.8545 53.2968 28.853 53.2977 28.8515 53.2981C28.8229 53.3111 28.7941 53.3236 28.7653 53.3357L28.7349 53.3487C28.7296 53.3508 28.7243 53.3534 28.719 53.3556L28.6934 53.3659L28.6694 53.3763C28.6596 53.3802 28.6498 53.3841 28.64 53.3884C28.635 53.3901 28.6299 53.3923 28.6249 53.3944L28.5958 53.4061C28.5878 53.4091 28.5799 53.4126 28.5719 53.4156C28.5668 53.4178 28.5616 53.4199 28.5565 53.4217C28.5458 53.426 28.5351 53.4303 28.5245 53.4342C28.5152 53.4381 28.5059 53.4415 28.4966 53.445C28.4905 53.4476 28.4844 53.4497 28.4783 53.4523C28.4677 53.4562 28.4571 53.4605 28.4465 53.4644C28.4413 53.4666 28.436 53.4683 28.4307 53.4705L28.4024 53.4808C28.3942 53.4839 28.386 53.4873 28.3778 53.4903C28.372 53.4922 28.3662 53.4942 28.3605 53.4964C28.3504 53.5003 28.3402 53.5037 28.3301 53.5076C28.3224 53.5102 28.3147 53.5132 28.307 53.5158C28.2981 53.5193 28.2892 53.5223 28.2803 53.5253C28.2761 53.527 28.2719 53.5283 28.2676 53.5301L28.2299 53.543L28.2153 53.5482C28.2046 53.5517 28.194 53.5556 28.1833 53.5594C28.1749 53.562 28.1665 53.5651 28.1581 53.5676C28.1497 53.5707 28.1413 53.5733 28.1328 53.5763L28.1175 53.5815C28.1058 53.5854 28.094 53.5892 28.0823 53.5927C28.0388 53.607 27.9952 53.6208 27.9514 53.6346C27.9463 53.6359 27.9412 53.6376 27.9361 53.6393C27.928 53.6415 27.9199 53.6441 27.9117 53.6467C27.9022 53.6497 27.8928 53.6523 27.8833 53.6553C27.8793 53.6562 27.8753 53.6575 27.8714 53.6588C27.8426 53.6674 27.8138 53.6756 27.7849 53.6838C27.7786 53.6856 27.7722 53.6877 27.7658 53.6894C27.7543 53.6925 27.7428 53.6959 27.7313 53.699C27.7276 53.7002 27.724 53.7011 27.7204 53.702L27.6825 53.7123C27.6787 53.7136 27.6749 53.7145 27.6712 53.7154C27.641 53.7236 27.6107 53.7318 27.5803 53.7395C27.5745 53.7408 27.5687 53.7426 27.563 53.7439C27.5522 53.7465 27.5414 53.7495 27.5307 53.7521L27.5158 53.756C27.4876 53.7629 27.4593 53.7698 27.431 53.7763C27.4215 53.7789 27.4121 53.781 27.4026 53.7832L27.3753 53.7897C27.3726 53.7901 27.3699 53.7905 27.3672 53.7914C27.353 53.7944 27.3388 53.7979 27.3245 53.8009C27.3213 53.8017 27.318 53.8026 27.3147 53.803C27.3009 53.8065 27.287 53.8095 27.2732 53.8125C27.1877 53.8306 27.102 53.8477 27.0161 53.8639C27.0105 53.8648 27.0048 53.8661 26.9991 53.867C26.9518 53.8756 26.9044 53.8838 26.8569 53.8916C26.8551 53.892 26.8532 53.892 26.8513 53.8925C26.8369 53.8946 26.8224 53.8972 26.8079 53.8994C26.7978 53.9011 26.7876 53.9024 26.7774 53.9041L26.7521 53.908C26.7505 53.9084 26.749 53.9084 26.7475 53.9089L26.6573 53.9218L26.6186 53.927C26.5932 53.9305 26.5678 53.9335 26.5423 53.9369L26.5104 53.9408C26.5034 53.9417 26.4964 53.9426 26.4894 53.943C26.476 53.9447 26.4626 53.9464 26.4491 53.9477L26.4368 53.949C26.4311 53.9499 26.4255 53.9503 26.4198 53.9512L26.3329 53.9603L26.2902 53.9642L26.276 53.9654L26.2477 53.968C26.2388 53.9689 26.23 53.9698 26.2211 53.9702C26.2192 53.9706 26.2172 53.9706 26.2152 53.9706C26.0923 53.981 25.9685 53.9888 25.8442 53.9935C25.8422 53.994 25.8402 53.994 25.8382 53.994C25.7497 53.9974 25.6608 53.9991 25.5716 54H8.48324C8.37563 54 8.26843 53.9978 8.16174 53.994C8.15977 53.994 8.15776 53.994 8.15579 53.9935C8.03138 53.9888 7.90767 53.981 7.78468 53.9706C7.78276 53.9706 7.78079 53.9706 7.77882 53.9702C7.76998 53.9698 7.76114 53.9689 7.7523 53.968L7.72394 53.9654L7.70974 53.9642L7.6671 53.9603L7.58018 53.9512C7.57448 53.9503 7.56878 53.9499 7.56309 53.949L7.55077 53.9477C7.53737 53.9464 7.52392 53.9447 7.51051 53.943C7.50352 53.9426 7.49652 53.9417 7.48953 53.9408L7.45765 53.9369C7.43218 53.9335 7.40671 53.9305 7.38132 53.927L7.3427 53.9218L7.25239 53.9089C7.25088 53.9084 7.24937 53.9084 7.24786 53.908L7.22256 53.9041C7.21238 53.9024 7.2022 53.9011 7.19202 53.8994C7.17757 53.8972 7.16312 53.8946 7.14867 53.8925C7.14678 53.892 7.1449 53.892 7.14301 53.8916C7.09551 53.8838 7.04813 53.8756 7.00088 53.867C6.99518 53.8661 6.98949 53.8648 6.98379 53.8639C6.94064 53.8557 6.89758 53.8475 6.8546 53.8389C6.81187 53.8303 6.76927 53.8216 6.72679 53.8125C6.71288 53.8095 6.69906 53.8065 6.6852 53.803C6.68197 53.8026 6.6787 53.8017 6.67544 53.8009C6.66119 53.7979 6.64695 53.7944 6.63271 53.7914C6.63006 53.7906 6.62736 53.79 6.62462 53.7897L6.59735 53.7832C6.57084 53.7771 6.54436 53.7707 6.51793 53.7642C6.5106 53.7624 6.50331 53.7607 6.49598 53.7586L6.46925 53.7521C6.45849 53.7495 6.44772 53.7465 6.437 53.7439C6.43122 53.7426 6.42539 53.7408 6.41965 53.7395C6.38928 53.7318 6.35904 53.7236 6.32884 53.7154C6.32498 53.7145 6.32117 53.7135 6.3174 53.7123L6.27953 53.702C6.27593 53.7011 6.27228 53.7002 6.26868 53.699C6.25716 53.6959 6.24564 53.6925 6.23412 53.6894C6.22776 53.6877 6.22139 53.6856 6.21502 53.6838C6.18616 53.6756 6.15734 53.6674 6.12856 53.6588C6.12465 53.6574 6.12068 53.6563 6.11666 53.6553C6.1072 53.6523 6.09769 53.6497 6.08822 53.6467C6.08009 53.6441 6.07197 53.6415 6.0638 53.6393C6.05876 53.6376 6.05366 53.636 6.04851 53.6346C6.00473 53.6208 5.96108 53.607 5.9176 53.5927C5.90587 53.5892 5.89419 53.5854 5.88246 53.5815L5.86708 53.5763C5.85866 53.5733 5.85024 53.5707 5.84182 53.5676C5.83345 53.5651 5.82507 53.562 5.81669 53.5594C5.80601 53.5556 5.79528 53.5517 5.7846 53.5482L5.77011 53.543L5.73228 53.5301C5.72809 53.5283 5.72386 53.527 5.71967 53.5253C5.71075 53.5223 5.70183 53.5193 5.69295 53.5158C5.68524 53.5132 5.67757 53.5102 5.66986 53.5076C5.65973 53.5037 5.64955 53.5003 5.63945 53.4964C5.63367 53.4942 5.62789 53.4921 5.62211 53.4903C5.61394 53.4873 5.60577 53.4839 5.5976 53.4808L5.56924 53.4705C5.56397 53.4683 5.55869 53.4666 5.55341 53.4644C5.54281 53.4605 5.53221 53.4562 5.52162 53.4523C5.51554 53.4497 5.50947 53.4476 5.50339 53.445C5.49409 53.4415 5.48475 53.4381 5.47545 53.4342C5.46473 53.4302 5.45408 53.426 5.44349 53.4217C5.43828 53.4198 5.43312 53.4178 5.42803 53.4156C5.42007 53.4126 5.41211 53.4091 5.40415 53.4061L5.37563 53.3944C5.36863 53.3919 5.36164 53.3888 5.35464 53.3858C5.34744 53.3832 5.34023 53.3802 5.33303 53.3772C5.32331 53.3733 5.31359 53.369 5.30387 53.3651C5.2962 53.3621 5.28858 53.3586 5.28096 53.3556C5.27564 53.3534 5.27032 53.3508 5.265 53.3487L5.23463 53.3357C5.20581 53.3236 5.17707 53.3111 5.14842 53.2981C5.14695 53.2977 5.14544 53.2968 5.14398 53.2964C5.07949 53.268 5.01542 53.2386 4.95178 53.2083C4.92766 53.1971 4.90361 53.1854 4.87965 53.1737C4.86557 53.1673 4.85154 53.1603 4.83751 53.1534L4.78795 53.1288C4.77388 53.1219 4.75984 53.1146 4.74581 53.1076C4.72843 53.0986 4.71108 53.0899 4.69378 53.0809C4.68017 53.074 4.66655 53.0666 4.65294 53.0597C4.63708 53.0515 4.62132 53.0432 4.60565 53.0347C4.58981 53.0264 4.57402 53.0178 4.55823 53.0096C4.54348 53.0014 4.52874 52.9936 4.51403 52.9854L4.46971 52.9608C4.45468 52.9526 4.43959 52.9444 4.42464 52.9357L4.38103 52.9111L4.33106 52.8826C4.31895 52.8753 4.30685 52.8684 4.29478 52.861C4.2784 52.8515 4.26202 52.842 4.24573 52.8321C4.23153 52.8239 4.21741 52.8152 4.20325 52.8066C4.18716 52.7971 4.17108 52.7872 4.15508 52.7777C4.1415 52.769 4.12797 52.7608 4.11444 52.7522C4.10028 52.7435 4.08608 52.7349 4.07201 52.7258C4.0568 52.7163 4.04168 52.7068 4.02656 52.6969C4.01104 52.6873 3.99562 52.6775 3.98031 52.6675L3.94659 52.6455C3.92921 52.6343 3.91182 52.6226 3.89448 52.6114C3.88254 52.6032 3.8706 52.595 3.85871 52.5872L3.81061 52.5548L3.76537 52.5237C3.75369 52.5155 3.74196 52.5073 3.73027 52.4995C3.71393 52.4878 3.69768 52.4762 3.68143 52.4649C3.66861 52.4559 3.65575 52.4468 3.64293 52.4373C3.62885 52.4274 3.61482 52.417 3.60079 52.4071C3.58654 52.3967 3.57226 52.3863 3.5581 52.3755L3.51743 52.3457C3.50394 52.3354 3.49041 52.3254 3.47696 52.3151C3.4641 52.3056 3.45132 52.2956 3.43855 52.2861C3.42391 52.2749 3.40934 52.2637 3.39481 52.2524C3.38066 52.2416 3.36654 52.2304 3.35246 52.2192L3.31602 52.1907C3.30127 52.179 3.28657 52.1674 3.27191 52.1553C3.25962 52.1456 3.24745 52.1358 3.23538 52.1259C3.2198 52.1134 3.2043 52.1004 3.18884 52.0879C3.17833 52.0792 3.16777 52.0706 3.15734 52.0615C3.14201 52.049 3.1268 52.036 3.11159 52.0231C3.10003 52.0136 3.08847 52.0037 3.07699 51.9942C3.06258 51.9816 3.04834 51.9695 3.03401 51.957C3.02237 51.9471 3.01068 51.9367 2.99904 51.9268C2.985 51.9142 2.97097 51.9017 2.95698 51.8896C2.94563 51.8793 2.93419 51.8693 2.92288 51.8594L2.87844 51.8192C2.86725 51.8089 2.85607 51.7989 2.84492 51.7886C2.83367 51.7782 2.82247 51.7678 2.81133 51.7575C2.79647 51.7436 2.78168 51.7298 2.76697 51.716L2.73387 51.6849C2.7211 51.6728 2.70832 51.6603 2.69563 51.6482C2.68239 51.6357 2.66928 51.6227 2.65612 51.6097C2.64423 51.5981 2.63233 51.5868 2.62052 51.5752C2.60891 51.5635 2.59739 51.5523 2.58587 51.5406L2.54717 51.5018C2.5354 51.4901 2.52371 51.478 2.51198 51.4659C2.50008 51.4538 2.4881 51.4417 2.47625 51.4292C2.46393 51.4167 2.4517 51.4037 2.43947 51.3912L2.40374 51.3536C2.39218 51.3411 2.38065 51.329 2.36913 51.3165C2.35766 51.3044 2.34614 51.2918 2.33474 51.2793L2.3001 51.2417C2.28774 51.2279 2.27538 51.2145 2.26315 51.2011C2.25205 51.1886 2.24112 51.1761 2.2301 51.164L2.19663 51.1264L2.1596 51.0837C2.14934 51.072 2.13903 51.0599 2.12881 51.0482C2.11485 51.0318 2.10093 51.0154 2.08705 50.999C2.0785 50.9891 2.06996 50.9787 2.06145 50.9688C2.05085 50.9558 2.0403 50.9433 2.02974 50.9303C2.01784 50.9161 2.00591 50.9018 1.99409 50.8871L1.96335 50.8496C1.95245 50.8357 1.94156 50.8223 1.93076 50.809C1.91836 50.7934 1.90604 50.7779 1.89372 50.7619C1.88448 50.7502 1.87528 50.7385 1.86612 50.7269C1.85604 50.7139 1.846 50.701 1.836 50.688C1.82452 50.6729 1.813 50.6582 1.80161 50.6431C1.79302 50.6319 1.78448 50.6202 1.77593 50.609C1.76374 50.593 1.75151 50.5766 1.73944 50.5602C1.72901 50.5463 1.71867 50.5321 1.70832 50.5178C1.69868 50.5049 1.68897 50.4915 1.67937 50.4785C1.66894 50.4638 1.65864 50.4496 1.64829 50.4349L1.61788 50.3921C1.6097 50.3805 1.60155 50.3688 1.59346 50.3572C1.58167 50.3403 1.56996 50.3235 1.55831 50.3066C1.54817 50.2919 1.53816 50.2773 1.52811 50.2621C1.51951 50.2496 1.51096 50.2371 1.50247 50.2246C1.4918 50.2086 1.4812 50.1926 1.47068 50.1766C1.46138 50.1624 1.45199 50.1485 1.44278 50.1343L1.41429 50.0902C1.40539 50.0766 1.39659 50.063 1.3879 50.0492C1.37709 50.0324 1.36641 50.0151 1.35573 49.9982C1.34777 49.9857 1.33987 49.9732 1.33202 49.9607C1.32117 49.9429 1.31045 49.9252 1.29968 49.908C1.29252 49.8959 1.28531 49.8842 1.27819 49.8725C1.26811 49.8557 1.25807 49.8389 1.24807 49.822C1.2399 49.8082 1.23165 49.7948 1.22353 49.781C1.21397 49.7646 1.20449 49.7482 1.19508 49.7317C1.18737 49.7188 1.17962 49.7054 1.172 49.692C1.16098 49.6726 1.15009 49.6536 1.1392 49.6341L1.1211 49.6017C1.11118 49.584 1.10137 49.5659 1.09153 49.5482C1.08407 49.5344 1.07653 49.521 1.06912 49.5071C1.06137 49.4929 1.05374 49.4782 1.04604 49.4639C1.03737 49.4475 1.02865 49.4315 1.02007 49.4151C1.0116 49.3992 1.00323 49.3827 0.994848 49.3668C0.987224 49.3521 0.979557 49.337 0.972017 49.3223C0.962257 49.3033 0.952705 49.2843 0.943071 49.2648C0.937374 49.2536 0.931552 49.2424 0.925855 49.2307C0.915047 49.2091 0.904406 49.1871 0.893766 49.1651C0.889116 49.1556 0.884383 49.1461 0.879733 49.1361C0.870378 49.1167 0.861092 49.0972 0.851876 49.0778L0.833654 49.0389C0.82448 49.0195 0.815516 48.9996 0.806468 48.9802L0.789418 48.9426L0.78238 48.9271C0.770177 48.8999 0.758099 48.8726 0.746146 48.8454C0.744177 48.8411 0.742208 48.8364 0.740198 48.8316C0.727882 48.8035 0.71565 48.775 0.703544 48.7465L0.699899 48.7375C0.680881 48.6925 0.662156 48.6472 0.643892 48.6018C0.641337 48.5953 0.638782 48.5889 0.636227 48.5828C0.63208 48.5725 0.627933 48.5617 0.623785 48.5513L0.61415 48.5267C0.611386 48.5198 0.608621 48.5129 0.605856 48.5055C0.602924 48.4982 0.599992 48.4904 0.597017 48.4826C0.587006 48.4567 0.576994 48.4308 0.567191 48.4044C0.557934 48.3798 0.548844 48.3548 0.539796 48.3301C0.530692 48.3051 0.521684 48.28 0.512776 48.255C0.504063 48.2304 0.495476 48.2058 0.487014 48.1811C0.478301 48.1557 0.469629 48.1306 0.461125 48.1051C0.432989 48.0207 0.406051 47.9359 0.38032 47.8507C0.377192 47.8403 0.374106 47.83 0.371062 47.8196C0.368925 47.8127 0.366748 47.8054 0.364653 47.798C0.36214 47.7898 0.35971 47.7812 0.357239 47.773C0.354683 47.7639 0.35217 47.7553 0.349657 47.7466C0.330018 47.6782 0.311137 47.6095 0.29302 47.5406L0.285732 47.5125C0.282004 47.4983 0.278317 47.4836 0.274673 47.4693C0.250045 47.3718 0.227003 47.2739 0.205555 47.1756C0.203083 47.1644 0.200612 47.1527 0.198182 47.1415C0.0934201 46.65 0.0299448 46.1502 0.00846162 45.6475C0.0028424 45.5161 2.12984e-05 45.3846 0 45.2531V36.5062L8.37341e-05 36.481C0.000223368 36.4519 0.000502175 36.4228 0.000921076 36.3937C0.00232001 36.2919 0.00544888 36.1901 0.0103051 36.0884C0.0344006 35.5773 0.101949 35.0693 0.212173 34.5704C0.222394 34.5243 0.232965 34.4784 0.243884 34.4326C0.294781 34.2182 0.353666 34.006 0.420409 33.7963C0.429261 33.7684 0.438267 33.7405 0.447427 33.7128L0.453837 33.6933C0.458082 33.6805 0.462355 33.6678 0.466655 33.655C0.484947 33.6006 0.503743 33.5465 0.52304 33.4926C0.527676 33.4796 0.532353 33.4667 0.537073 33.4539L0.541387 33.4418L0.550268 33.4178L0.559861 33.3918C0.570501 33.3633 0.581267 33.3348 0.592158 33.3063L0.596431 33.2952C0.606736 33.2685 0.617167 33.2418 0.627723 33.2153L0.636394 33.1933C0.647202 33.1663 0.658149 33.1393 0.669236 33.1125L0.675226 33.0979C0.680923 33.0841 0.686662 33.0704 0.692442 33.0568C0.700401 33.0377 0.708431 33.0186 0.71653 32.9996C0.723735 32.9828 0.731009 32.966 0.738354 32.9493C0.744777 32.9344 0.751256 32.9195 0.757791 32.9045L0.779449 32.8562C0.78685 32.8396 0.794278 32.8231 0.801734 32.8066C0.808604 32.7916 0.815501 32.7767 0.822427 32.7618C0.829967 32.7454 0.837564 32.729 0.845216 32.7127C0.852756 32.6967 0.860338 32.6808 0.867962 32.6649C0.875502 32.649 0.883098 32.6331 0.89075 32.6173L0.909811 32.5785C0.91939 32.559 0.929023 32.5395 0.938714 32.52L0.952496 32.4927C0.963444 32.4709 0.974502 32.4491 0.985673 32.4274C0.990476 32.4182 0.995322 32.4089 1.00021 32.3996C1.01135 32.3781 1.02257 32.3566 1.03385 32.3352C1.04066 32.3224 1.04749 32.3097 1.05433 32.297C1.06352 32.2798 1.07279 32.2626 1.08215 32.2454L1.10238 32.2086C1.11324 32.1888 1.12416 32.1691 1.13514 32.1495L1.14745 32.1278C1.15974 32.106 1.17211 32.0843 1.18457 32.0626C1.19462 32.0452 1.20472 32.0279 1.21485 32.0107L1.23601 31.9745C1.24643 31.957 1.25687 31.9396 1.26734 31.9222C1.2748 31.9097 1.2823 31.8972 1.28984 31.8848C1.2993 31.8693 1.3088 31.8538 1.31832 31.8384C1.32709 31.8241 1.3359 31.8098 1.34476 31.7956C1.35489 31.7794 1.36506 31.7634 1.37525 31.7473C1.38374 31.7338 1.39227 31.7204 1.40085 31.7069C1.41073 31.6916 1.42066 31.6762 1.43063 31.661C1.43951 31.6472 1.44845 31.6335 1.45744 31.6198C1.46721 31.605 1.47706 31.5902 1.48697 31.5754C1.49616 31.5616 1.50538 31.5477 1.51462 31.534C1.52277 31.5219 1.53096 31.5099 1.53917 31.4979C1.55101 31.4805 1.5629 31.4631 1.57486 31.4458C1.58402 31.4326 1.59321 31.4195 1.60242 31.4065C1.61197 31.3927 1.62158 31.3791 1.63124 31.3654C1.64241 31.3497 1.65363 31.3341 1.66488 31.3184C1.67404 31.3056 1.68326 31.2928 1.69253 31.2801C1.70381 31.2646 1.71512 31.2492 1.72646 31.2339C1.73523 31.2219 1.74402 31.21 1.75285 31.1981C1.7631 31.1845 1.77337 31.1708 1.78368 31.1571C1.79533 31.1417 1.80703 31.1263 1.81878 31.1108C1.82727 31.0998 1.83579 31.0888 1.84434 31.0778C1.85668 31.0617 1.86909 31.0457 1.88158 31.0297C1.89004 31.019 1.89851 31.0083 1.907 30.9976C1.91935 30.982 1.93172 30.9664 1.94412 30.9509C1.95554 30.9367 1.967 30.9225 1.97851 30.9084L2.00808 30.8721C2.01909 30.8587 2.03015 30.8454 2.04126 30.8321C2.07468 30.7918 2.10846 30.7519 2.14259 30.7124C2.1524 30.701 2.16225 30.6897 2.17217 30.6784C2.18482 30.6638 2.19751 30.6493 2.21025 30.6348L2.24196 30.5992C2.25405 30.5857 2.26617 30.5722 2.27832 30.5587C2.28993 30.5459 2.30157 30.5331 2.31321 30.5205C2.3243 30.5083 2.33543 30.4961 2.3466 30.4841C2.35989 30.4698 2.37321 30.4556 2.38656 30.4414C2.39673 30.4305 2.40691 30.4197 2.4171 30.4089C2.429 30.3964 2.44092 30.3839 2.45287 30.3715C2.46525 30.3586 2.47765 30.3457 2.49007 30.3329C2.50127 30.3213 2.51251 30.3099 2.52379 30.2984C2.53608 30.2859 2.54843 30.2734 2.56082 30.2609C2.57375 30.2479 2.5867 30.235 2.59966 30.2222C2.611 30.2109 2.62235 30.1996 2.63371 30.1884C2.64659 30.1758 2.6595 30.1632 2.67246 30.1507L2.70727 30.1171C2.72006 30.1049 2.73288 30.0927 2.74573 30.0805L2.78259 30.0457C2.79586 30.0333 2.80915 30.021 2.82247 30.0087C2.83378 29.9982 2.84512 29.9878 2.85648 29.9774C2.87003 29.965 2.88362 29.9526 2.89724 29.9404C2.90959 29.9292 2.92197 29.918 2.9344 29.9069C2.94641 29.8962 2.95846 29.8856 2.97055 29.875C2.98429 29.8628 2.99809 29.8506 3.01194 29.8386C3.02593 29.8264 3.03996 29.8143 3.05404 29.8023C3.06465 29.7931 3.0753 29.784 3.086 29.7748C3.10075 29.7623 3.11556 29.7498 3.13045 29.7373C3.14301 29.7267 3.15559 29.7162 3.16819 29.7057C3.18073 29.6953 3.19331 29.685 3.20593 29.6747C3.21959 29.6634 3.23329 29.6522 3.24703 29.6411C3.26018 29.6304 3.27337 29.6198 3.28661 29.6093C3.30027 29.5984 3.31395 29.5875 3.32766 29.5766C3.34004 29.5668 3.35242 29.5571 3.36482 29.5475C3.40623 29.515 3.44798 29.4829 3.49007 29.4514C3.50269 29.4419 3.51535 29.4325 3.52802 29.4231C3.54322 29.4117 3.55846 29.4004 3.57377 29.3892L3.60841 29.364C3.62453 29.3523 3.64068 29.3407 3.65688 29.3291L3.69378 29.3029C3.70912 29.2921 3.72446 29.2813 3.73982 29.2706C3.76792 29.2511 3.7961 29.2317 3.82435 29.2124C3.83835 29.2029 3.85237 29.1935 3.86641 29.1841C3.88004 29.175 3.89373 29.1658 3.90747 29.1567C3.92199 29.1471 3.93655 29.1376 3.95116 29.1281C3.96613 29.1183 3.98112 29.1086 3.99615 29.0989C4.00941 29.0903 4.0227 29.0819 4.03603 29.0734C4.05136 29.0636 4.0667 29.0539 4.08206 29.0443C4.09566 29.0358 4.10928 29.0273 4.1229 29.0189C4.1381 29.0095 4.15329 29.0001 4.16848 28.9908C4.18434 28.9812 4.20022 28.9716 4.21611 28.962C4.22898 28.9543 4.24189 28.9465 4.25482 28.9388C4.27074 28.9294 4.2867 28.92 4.3027 28.9106L4.34513 28.8859C4.35996 28.8774 4.37482 28.8689 4.3897 28.8604C4.40456 28.8519 4.41946 28.8435 4.4344 28.8351L4.47939 28.8101C4.49483 28.8015 4.51032 28.793 4.52585 28.7846L4.56916 28.7612C4.60124 28.744 4.63341 28.727 4.66567 28.7102C4.67816 28.7037 4.69063 28.6972 4.70308 28.6908C4.73485 28.6744 4.76673 28.6582 4.79872 28.6423C4.81433 28.6346 4.82993 28.6269 4.84551 28.6193L4.88979 28.5977C4.90629 28.5898 4.92284 28.5819 4.93943 28.574C4.95409 28.567 4.96876 28.5601 4.98345 28.5532C4.99934 28.5458 5.01525 28.5384 5.03117 28.5311C5.07116 28.5127 5.11128 28.4946 5.15152 28.4768L5.15927 28.4734C5.22021 28.4466 5.28146 28.4206 5.343 28.3953L5.34668 28.3938C5.38388 28.3785 5.42119 28.3634 5.45861 28.3487L5.48576 28.3381L5.50071 28.3324L5.5323 28.3201L5.55094 28.3131L5.5824 28.3012L5.59019 28.2983C5.63644 28.281 5.68286 28.264 5.72947 28.2475L5.73605 28.2452L5.77744 28.2307L5.81485 28.2179L5.82071 28.2159L5.84551 28.2075C5.87131 28.1988 5.89716 28.1903 5.92305 28.1818L5.95233 28.1723L5.97269 28.1658L5.9956 28.1586L6.0243 28.1495L6.03309 28.1468C6.09317 28.1281 6.15345 28.1102 6.21393 28.0929L6.2198 28.0912L6.24874 28.083L6.27254 28.0764L6.28846 28.072C6.31751 28.064 6.34661 28.0561 6.37575 28.0484L6.38401 28.0463C6.39761 28.0427 6.41123 28.0392 6.42489 28.0357L6.43725 28.0325C6.48793 28.0195 6.53873 28.0071 6.58964 27.9951L6.62902 27.986L6.64641 27.982L6.67929 27.9746L6.70275 27.9694C6.72928 27.9636 6.75586 27.9578 6.78251 27.9522L6.79981 27.9487C6.86269 27.9356 6.92571 27.9233 6.98886 27.9117L7.01554 27.9069L7.04126 27.9023L7.05429 27.9C7.08499 27.8946 7.11573 27.8894 7.14649 27.8844L7.15428 27.8831C7.20314 27.8752 7.25207 27.8677 7.30106 27.8607L7.32603 27.8571C7.35362 27.8532 7.38124 27.8495 7.40889 27.8459L7.429 27.8433L7.46029 27.8393L7.50641 27.8338L7.51227 27.8331C7.57912 27.8252 7.64605 27.8182 7.71305 27.812L7.72608 27.8108L7.73701 27.8098C7.8046 27.8037 7.87237 27.7985 7.94035 27.794L7.95907 27.7929C7.99551 27.7906 8.03195 27.7886 8.06841 27.7867C8.09779 27.7853 8.12721 27.7839 8.15667 27.7827C8.19863 27.7811 8.24061 27.7798 8.28259 27.7788C8.30278 27.7784 8.32299 27.778 8.34321 27.7776C8.38988 27.7768 8.43656 27.7764 8.48324 27.7764H13.1856ZM10.0059 48.9279H11.5453V47.0992H12.6405L13.0667 45.857H11.5453V44.9944H13.3627L13.7875 43.7561V43.7522H10.0059V48.9279ZM14.2225 48.9279H15.8288V43.7522H14.2225V48.9279ZM16.8327 48.9279H18.439V47.0992H19.4477L19.8739 45.857H18.439V44.9944H20.1699L20.5961 43.7522H16.8327V48.9279ZM20.3957 47.2374L20.0299 48.2377L19.7776 48.9279H21.3993L21.5803 48.2377H23.2858L23.4755 48.9279H25.0315L24.7639 48.1315L24.4631 47.2374L23.2914 43.7522H21.6696L20.3957 47.2374ZM23.0108 47.2374H21.8425L22.4129 45.0609L23.0108 47.2374ZM25.5715 0.000129506C25.6603 0.000741891 25.7489 0.00275774 25.8376 0.0061764L25.8438 0.00634924C25.9101 0.00896261 25.9764 0.0123606 26.0426 0.0165426L26.0605 0.0176657C26.1088 0.0208331 26.1569 0.0244035 26.205 0.0283772L26.2211 0.0296731L26.2392 0.0312712L26.2756 0.0345106L26.2833 0.0352017C26.423 0.0480904 26.5623 0.0645374 26.7011 0.0845274L26.7053 0.085132C26.7564 0.0925611 26.8074 0.100422 26.8582 0.108715L26.8683 0.110443C26.9173 0.118505 26.9662 0.127 27.0149 0.135926L27.0303 0.13882C27.1113 0.153854 27.192 0.170111 27.2725 0.187584L27.2973 0.193026L27.3248 0.199073L27.3358 0.201578C27.3824 0.21206 27.429 0.222944 27.4754 0.234232L27.5077 0.242222L27.5306 0.247924L27.5388 0.25004L27.576 0.259456L27.5836 0.261443C27.6089 0.267979 27.6342 0.274631 27.6595 0.281398L27.6823 0.287531L27.7141 0.296299L27.7288 0.300359L27.7613 0.309429L27.7832 0.315649L27.7955 0.319148C27.8548 0.336166 27.9139 0.353861 27.9729 0.372231L27.9792 0.374175C27.9904 0.37763 28.0015 0.381143 28.0127 0.384714L28.0309 0.390502L28.0607 0.40009L28.0817 0.406958L28.1016 0.41348C28.1373 0.425235 28.173 0.437272 28.2086 0.449589L28.2322 0.457709L28.2445 0.462028C28.2637 0.468731 28.2828 0.475498 28.302 0.482328L28.3277 0.491615L28.3452 0.498007C28.3719 0.507711 28.3986 0.517573 28.4252 0.527594L28.4448 0.535023L28.4752 0.546598L28.4925 0.553293L28.5251 0.565949L28.5333 0.569188L28.5709 0.584003L28.5877 0.590698C28.6419 0.61244 28.6959 0.634757 28.7496 0.657646L28.7601 0.662051C28.788 0.673973 28.8159 0.686052 28.8436 0.69829L28.855 0.703257C28.8823 0.715351 28.9096 0.727589 28.9368 0.73997L28.9499 0.745931C29.0054 0.77131 29.0607 0.797313 29.1156 0.823936C29.2385 0.883456 29.36 0.945958 29.4801 1.01139C29.5267 1.03696 29.5732 1.06292 29.6194 1.08927C29.633 1.09698 29.6466 1.10476 29.6601 1.11259C29.6899 1.12984 29.7196 1.14726 29.7492 1.16485C29.7653 1.17436 29.7813 1.18394 29.7972 1.19362L29.8361 1.21716C29.8521 1.22698 29.8681 1.23687 29.8841 1.24683L29.9243 1.27184C29.9824 1.30848 30.0402 1.34576 30.0975 1.38366C30.1264 1.40276 30.1551 1.42205 30.1836 1.44154C30.1973 1.45084 30.211 1.4602 30.2245 1.46962C30.2392 1.47964 30.2538 1.48972 30.2683 1.49985L30.3118 1.53052C30.3251 1.53991 30.3384 1.54934 30.3516 1.55881C30.365 1.56843 30.3784 1.57807 30.3917 1.58775C30.4068 1.59869 30.4218 1.60966 30.4369 1.62066C30.4488 1.62944 30.4607 1.63824 30.4725 1.64705C30.4883 1.65883 30.5041 1.67063 30.5199 1.68247C30.5315 1.69128 30.5431 1.70012 30.5548 1.70899C30.5701 1.72068 30.5854 1.73243 30.6007 1.74423C30.6123 1.75319 30.6239 1.7622 30.6354 1.77127C30.6512 1.78351 30.6668 1.79582 30.6825 1.8082C30.6953 1.81842 30.7082 1.82869 30.721 1.839C30.7336 1.84908 30.7462 1.85921 30.7588 1.86941C30.7737 1.88156 30.7886 1.89378 30.8035 1.90608C30.8154 1.91587 30.8274 1.92569 30.8393 1.93553C30.8534 1.94734 30.8675 1.95917 30.8816 1.97104C30.8936 1.98109 30.9055 1.99119 30.9174 2.00136C30.9314 2.01328 30.9454 2.02527 30.9593 2.03734C30.9713 2.0477 30.9834 2.0581 30.9953 2.06852L31.0346 2.10308C31.0468 2.11385 31.0591 2.12469 31.0713 2.1356C31.0861 2.14885 31.1009 2.16218 31.1156 2.1756C31.1267 2.18567 31.1378 2.19578 31.1489 2.20592C31.1627 2.21853 31.1763 2.23117 31.19 2.24384C31.2016 2.25461 31.2132 2.26544 31.2249 2.27632C31.2374 2.28798 31.2495 2.29977 31.2621 2.31152C31.2746 2.32362 31.2876 2.33571 31.3002 2.34789L31.3404 2.38668C31.3509 2.39687 31.3613 2.40712 31.3718 2.41743C31.3844 2.42996 31.3974 2.44261 31.4099 2.45522C31.4221 2.46749 31.4347 2.47976 31.4468 2.49211C31.4585 2.5039 31.4698 2.51574 31.4816 2.52757C31.4941 2.54053 31.5071 2.55349 31.5197 2.56644L31.5511 2.59914C31.5641 2.61283 31.5771 2.62657 31.5905 2.64039C31.6026 2.65348 31.6152 2.66665 31.6273 2.67987L31.6588 2.71364C31.6738 2.72984 31.6885 2.74621 31.7036 2.76254C31.7115 2.77117 31.7195 2.77981 31.727 2.78849C31.7413 2.80422 31.7555 2.82001 31.7698 2.83588L31.7974 2.86693C31.8125 2.88408 31.8272 2.90136 31.8422 2.91863C31.8494 2.92662 31.8561 2.93461 31.8632 2.94265C31.8774 2.9591 31.8913 2.97573 31.9055 2.99232C31.9147 3.00294 31.9235 3.01357 31.9327 3.02424C31.9449 3.03918 31.9574 3.05421 31.97 3.0692C31.9792 3.08047 31.9889 3.0917 31.9981 3.10302C32.0111 3.11903 32.024 3.1351 32.037 3.15122C32.0458 3.16194 32.0542 3.17265 32.063 3.1834C32.0752 3.19843 32.0869 3.21359 32.099 3.22875L32.1279 3.2656C32.1401 3.28115 32.1522 3.29678 32.164 3.31237L32.1903 3.34645C32.2029 3.36274 32.2151 3.37911 32.2272 3.39543C32.236 3.40675 32.2444 3.41807 32.2528 3.42943L32.288 3.47711C32.2968 3.48938 32.306 3.50164 32.3148 3.514C32.3248 3.52756 32.3345 3.54125 32.3445 3.55486C32.355 3.56976 32.3659 3.58461 32.3763 3.5996C32.3885 3.61658 32.4002 3.63368 32.4119 3.65074C32.4191 3.66055 32.4258 3.67031 32.4325 3.68016C32.445 3.69817 32.4572 3.71631 32.4698 3.73445C32.4773 3.74589 32.4853 3.7573 32.4928 3.76883C32.5045 3.78567 32.5154 3.80269 32.5267 3.81962C32.5347 3.83129 32.5422 3.84295 32.5498 3.85465C32.5607 3.87076 32.5711 3.887 32.5816 3.9032C32.59 3.91668 32.5988 3.93011 32.6076 3.94363C32.6193 3.96186 32.6306 3.98021 32.6423 3.99853C32.6482 4.00837 32.6545 4.01822 32.6608 4.02811C32.6738 4.04872 32.6863 4.06945 32.6989 4.09018C32.7048 4.09955 32.7106 4.10888 32.7161 4.11826C32.7265 4.13514 32.7366 4.15212 32.7466 4.16909C32.7546 4.18278 32.763 4.19643 32.7709 4.21017L32.7998 4.25941C32.8074 4.27254 32.8149 4.28567 32.8229 4.29889C32.8342 4.31906 32.8455 4.33927 32.8572 4.35953C32.8623 4.36899 32.8677 4.3784 32.8732 4.38786C32.884 4.40773 32.8949 4.42773 32.9063 4.44773L32.9251 4.48202C32.9335 4.49809 32.9423 4.51429 32.9511 4.5304L32.975 4.57514C32.9837 4.59238 32.993 4.6097 33.0018 4.62702C33.0085 4.64019 33.0156 4.65336 33.0223 4.66658C33.0319 4.68515 33.0411 4.70386 33.0508 4.72256L33.0696 4.7607L33.0973 4.81629C33.1031 4.82898 33.1094 4.84164 33.1157 4.85438L33.1434 4.91248C33.1488 4.92431 33.1547 4.9361 33.1601 4.94794L33.1903 5.01298C33.1949 5.02352 33.1999 5.03406 33.2049 5.04464L33.2288 5.09881L33.2502 5.14619C33.2514 5.14874 33.2523 5.15129 33.2535 5.15383C33.2803 5.21566 33.3067 5.27785 33.3327 5.34042C33.3335 5.34332 33.3348 5.34621 33.336 5.34906C33.3482 5.37835 33.3599 5.40767 33.3716 5.43713L33.3804 5.45912L33.3905 5.48542C33.4073 5.52857 33.424 5.57189 33.4399 5.61539C33.4424 5.62148 33.4445 5.62752 33.4466 5.63357C33.45 5.64195 33.4529 5.65033 33.4563 5.65871C33.4588 5.66635 33.4617 5.674 33.4646 5.68164L33.4734 5.70678C33.4768 5.71633 33.4806 5.72587 33.4839 5.73546C33.4931 5.76133 33.5019 5.78729 33.5111 5.81329C33.5132 5.82008 33.5158 5.8269 33.5183 5.83368C33.5204 5.84033 33.5225 5.84698 33.525 5.85364C33.5283 5.86413 33.5321 5.87463 33.5354 5.88512C33.5614 5.96218 33.5861 6.03975 33.61 6.11776L33.6163 6.13836C33.6347 6.19883 33.6523 6.2596 33.6695 6.32063C33.6716 6.32858 33.6737 6.33653 33.6762 6.34447C33.6925 6.40457 33.7084 6.46494 33.7239 6.52558C33.726 6.53439 33.7286 6.54324 33.7306 6.5521C33.7717 6.71511 33.8081 6.87997 33.8396 7.04648C33.8417 7.05546 33.8433 7.06444 33.845 7.07343C33.8496 7.0996 33.8546 7.12582 33.8593 7.15208L33.8655 7.18836C33.8806 7.27353 33.8943 7.35895 33.9066 7.44458C33.9673 7.86398 33.9992 8.29309 34 8.72972V8.74722L33.9996 8.82168C33.9987 8.94415 33.9954 9.066 33.9895 9.18726C33.9891 9.19331 33.9887 9.19935 33.9887 9.2054C33.9841 9.29645 33.9782 9.38715 33.9707 9.47747C33.9703 9.48667 33.9694 9.49591 33.9686 9.50511L33.9648 9.54956C33.964 9.55655 33.9636 9.56355 33.9627 9.57055L33.9577 9.62687L33.9552 9.6489C33.9539 9.66531 33.9522 9.68168 33.9506 9.69805C33.9497 9.70259 33.9493 9.70712 33.9489 9.71166L33.9426 9.77083L33.9401 9.79299C33.938 9.80893 33.9363 9.82482 33.9342 9.84072C33.9334 9.84966 33.9321 9.8586 33.9309 9.86754L33.9259 9.90814C33.9246 9.91829 33.9233 9.92844 33.9217 9.93855C33.92 9.9531 33.9179 9.96766 33.9162 9.98217C33.9145 9.99193 33.9133 10.0017 33.912 10.0114C33.9099 10.0266 33.9078 10.0419 33.9053 10.057C33.9045 10.0634 33.9037 10.0698 33.9024 10.0761C33.9003 10.0923 33.8978 10.1084 33.8953 10.1245C33.8944 10.1311 33.8932 10.1376 33.8923 10.1442L33.8835 10.1991C33.8823 10.2063 33.881 10.2135 33.8802 10.2207C33.8777 10.2361 33.8747 10.2515 33.8722 10.2669C33.871 10.2758 33.8693 10.2847 33.8676 10.2935C33.8651 10.3093 33.8622 10.325 33.8597 10.3407C33.858 10.3481 33.8567 10.3556 33.8555 10.363C33.853 10.3758 33.8509 10.3885 33.8484 10.4012C33.8458 10.4151 33.8433 10.4291 33.8404 10.443C33.8387 10.4534 33.8366 10.4638 33.8345 10.4742C33.8324 10.4853 33.8303 10.4964 33.8278 10.5075C33.8253 10.522 33.8224 10.5365 33.8195 10.551C33.8178 10.5576 33.8165 10.5641 33.8153 10.5707C33.8123 10.5859 33.809 10.601 33.8056 10.6161C33.804 10.6249 33.8023 10.6336 33.8002 10.6424C33.7977 10.6545 33.7952 10.6667 33.7922 10.6789C33.7893 10.6919 33.7868 10.705 33.7838 10.718C33.7813 10.728 33.7792 10.7379 33.7771 10.7478C33.7742 10.7596 33.7717 10.7714 33.7688 10.7832C33.7654 10.7981 33.7621 10.813 33.7583 10.8278C33.7566 10.8358 33.7545 10.8438 33.7528 10.8518C33.7495 10.865 33.7461 10.8783 33.7432 10.8915C33.7406 10.901 33.7383 10.9107 33.7361 10.9203L33.7248 10.9657L33.7198 10.9856L33.7084 11.0292L33.7009 11.0578L33.6896 11.099L33.6833 11.1231C33.6787 11.1392 33.6745 11.1551 33.6699 11.1711C33.6678 11.178 33.6661 11.1849 33.664 11.1918C33.6607 11.2045 33.6569 11.2171 33.6531 11.2297C33.6498 11.2423 33.646 11.2548 33.6423 11.2674C33.6402 11.2753 33.6377 11.2833 33.6356 11.2912L33.623 11.3335L33.6154 11.3581C33.6108 11.373 33.6062 11.3879 33.602 11.4028L33.5958 11.423C33.5916 11.4359 33.5874 11.4487 33.5836 11.4615C33.579 11.4754 33.5748 11.4892 33.5702 11.5031L33.5614 11.5309L33.5526 11.5575L33.54 11.5957C33.5354 11.6089 33.5308 11.6222 33.5266 11.6354C33.5237 11.6436 33.5208 11.6518 33.5183 11.6599L33.5044 11.7002C33.5007 11.7104 33.4973 11.7206 33.4936 11.7308C33.4906 11.7387 33.4881 11.7467 33.4852 11.7546L33.4701 11.7969C33.4663 11.8066 33.463 11.8163 33.4592 11.8261C33.455 11.8384 33.4504 11.8507 33.4458 11.8629C33.4433 11.8702 33.4403 11.8775 33.4378 11.8848C33.4324 11.8987 33.4274 11.9126 33.4219 11.9265C33.4181 11.9367 33.4144 11.947 33.4102 11.9572C33.406 11.9688 33.4014 11.9803 33.3972 11.9918C33.393 12.0021 33.3888 12.0124 33.3851 12.0227L33.3725 12.0541C33.3696 12.0621 33.3662 12.0702 33.3629 12.0783C33.3574 12.0927 33.3515 12.1071 33.3457 12.1215C33.3427 12.1284 33.3398 12.1353 33.3373 12.1422C33.3314 12.1559 33.326 12.1696 33.3201 12.1833C33.3159 12.1941 33.3113 12.2049 33.3067 12.2157C33.3017 12.2272 33.2971 12.2387 33.2921 12.2501L33.2845 12.2683C33.2782 12.2832 33.2715 12.2981 33.2652 12.3129L33.2552 12.3356L33.2389 12.3733L33.2276 12.3985C33.2217 12.4119 33.2158 12.4253 33.2095 12.4387C33.2071 12.4446 33.2044 12.4504 33.2016 12.4561C33.1949 12.471 33.1882 12.4859 33.181 12.5008C33.1805 12.5025 33.1798 12.5041 33.179 12.5057L33.1526 12.5627C33.1492 12.5693 33.1463 12.5758 33.1429 12.5824C33.1266 12.6175 33.1094 12.6524 33.0927 12.6872L33.0914 12.6899C33.0612 12.7509 33.0307 12.8115 32.9997 12.8716C32.9729 12.9231 32.9452 12.9744 32.9176 13.0253C32.9125 13.0343 32.9079 13.0434 32.9029 13.0524C32.892 13.0723 32.8811 13.0921 32.8698 13.1118C32.8593 13.1306 32.8489 13.1494 32.838 13.1681C32.7117 13.3906 32.5757 13.6071 32.4304 13.8169C32.4249 13.8251 32.4191 13.8333 32.4132 13.8415C32.3952 13.8675 32.3772 13.8934 32.3587 13.9192C32.3516 13.9289 32.3449 13.9385 32.3378 13.9481C32.3064 13.992 32.2746 14.0357 32.2423 14.079L32.2285 14.0971C32.2201 14.1081 32.2121 14.1191 32.2038 14.1301C32.1996 14.1352 32.1958 14.1403 32.192 14.1455C32.1832 14.1571 32.174 14.1688 32.1652 14.1805C32.143 14.2093 32.1204 14.2379 32.0982 14.2665L32.0881 14.2789L32.068 14.3045L32.0454 14.3323C32.0412 14.3376 32.037 14.343 32.0324 14.3484C32.0245 14.3581 32.0169 14.3679 32.009 14.3776C32.0018 14.3864 31.9943 14.3951 31.9872 14.4039C31.9813 14.4113 31.975 14.4187 31.9688 14.4261L31.9512 14.4475C31.9294 14.4737 31.9072 14.4998 31.885 14.5258C31.8783 14.5335 31.872 14.5412 31.8653 14.5488L31.8439 14.5734L31.8251 14.5952C31.8029 14.6206 31.7807 14.6458 31.7585 14.6709C31.7518 14.6781 31.7455 14.6853 31.7388 14.6926L31.7162 14.7179C31.7115 14.7228 31.7074 14.7276 31.7027 14.7325C31.6931 14.7432 31.6831 14.7539 31.6734 14.7646C31.6676 14.771 31.6613 14.7775 31.6554 14.7839C31.6466 14.7934 31.6378 14.8029 31.6294 14.8122L31.6093 14.8334L31.588 14.856L31.5666 14.8787C31.5582 14.8876 31.5494 14.8964 31.5411 14.9053L31.5272 14.9197L31.4971 14.9506C31.4916 14.9561 31.4866 14.9614 31.4812 14.9668C31.4724 14.9759 31.4631 14.9851 31.4543 14.9942C31.4472 15.0014 31.4401 15.0087 31.4326 15.0159C31.425 15.0237 31.4171 15.0315 31.4095 15.0393C31.4024 15.0462 31.3953 15.0531 31.3886 15.0601L31.3647 15.0836C31.3567 15.0912 31.3492 15.0988 31.3412 15.1064C31.3337 15.1135 31.3266 15.1207 31.319 15.1278L31.3002 15.146C31.291 15.1552 31.2813 15.1643 31.2717 15.1735C31.2663 15.1788 31.2604 15.1841 31.2549 15.1895C31.2449 15.1988 31.235 15.2081 31.2252 15.2174L31.2097 15.2318C31.1995 15.2414 31.1892 15.2509 31.1789 15.2604C31.1732 15.2658 31.1674 15.2711 31.1616 15.2764C31.1517 15.2855 31.1419 15.2946 31.1319 15.3036L31.1184 15.3158C31.1069 15.3263 31.0953 15.3368 31.0837 15.3472L31.0695 15.36L31.0394 15.3867L31.0193 15.4044L30.9915 15.4288L30.9724 15.4454L30.9408 15.4726L30.9255 15.4857C30.905 15.5033 30.8844 15.5207 30.8638 15.538L30.8537 15.5464C30.8347 15.5623 30.8155 15.5781 30.7963 15.5939C30.7902 15.599 30.784 15.6041 30.7777 15.6091C30.7692 15.6161 30.7607 15.623 30.7521 15.63L30.719 15.6566L30.7079 15.6655C30.689 15.6807 30.67 15.6957 30.651 15.7106L30.6227 15.7327L30.6047 15.7467L30.575 15.7695L30.5515 15.7875C30.5413 15.7953 30.5311 15.803 30.5208 15.8108L30.506 15.8219C30.4876 15.8358 30.4691 15.8496 30.4505 15.8633L30.4236 15.883L30.3988 15.9012L30.3747 15.9186L30.3477 15.938L30.3187 15.9586L30.2987 15.9728C30.289 15.9796 30.2794 15.9864 30.2697 15.9931L30.2426 16.012L30.217 16.0296L30.1932 16.046L30.167 16.0638C30.1569 16.0706 30.1468 16.0775 30.1366 16.0842C30.1199 16.0955 30.1032 16.1067 30.0864 16.1177L30.0584 16.1361C30.0313 16.1538 30.0041 16.1713 29.9769 16.1888C29.9699 16.1933 29.9628 16.1978 29.9557 16.2023C29.9468 16.2079 29.9379 16.2135 29.929 16.2191C29.9179 16.2261 29.9069 16.233 29.8958 16.2399L29.8794 16.2501C29.8669 16.2578 29.8543 16.2656 29.8417 16.2733L29.821 16.286L29.7921 16.3034L29.7685 16.3177L29.7398 16.3347L29.7086 16.3532L29.6839 16.3676L29.6563 16.3836L29.6254 16.4014L29.6041 16.4135C29.5928 16.4199 29.5816 16.4263 29.5703 16.4326L29.5443 16.4471C29.5364 16.4515 29.5285 16.4559 29.5205 16.4603C29.5106 16.4658 29.5007 16.4713 29.4908 16.4767L29.4558 16.4958L29.4413 16.5036L29.4036 16.5238L29.3829 16.5347L29.3446 16.5549L29.3249 16.5652L29.2952 16.5805L29.2695 16.5937L29.2354 16.611L29.2075 16.6249L29.1832 16.637C29.1701 16.6435 29.1569 16.65 29.1438 16.6564L29.127 16.6646L29.0974 16.6789C29.0762 16.689 29.0551 16.6991 29.0338 16.709L29.0122 16.7192L28.9738 16.737L28.9518 16.7471L28.9157 16.7635L28.8949 16.7729C28.8814 16.779 28.8678 16.785 28.8542 16.791L28.8385 16.7979C28.7983 16.8155 28.7579 16.8328 28.7175 16.8499L28.6896 16.8616L28.6588 16.8743L28.6247 16.8882L28.599 16.8986L28.5743 16.9085C28.5613 16.9137 28.5482 16.9189 28.5352 16.924L28.5117 16.9332C28.502 16.937 28.4922 16.9408 28.4823 16.9446L28.4473 16.9579L28.4184 16.9688L28.3839 16.9817L28.3642 16.989L28.3271 17.0025L28.298 17.013C28.2878 17.0166 28.2775 17.0203 28.2672 17.0239C28.2482 17.0307 28.2291 17.0373 28.21 17.0439L28.1751 17.0559L28.1584 17.0614C28.1447 17.0661 28.1311 17.0707 28.1174 17.0753C28.1071 17.0787 28.0968 17.082 28.0865 17.0854L28.0565 17.0952L28.0254 17.1051C28.0159 17.1082 28.0064 17.1112 27.9968 17.1142C27.9859 17.1176 27.975 17.121 27.9641 17.1244C27.954 17.1275 27.9439 17.1307 27.9339 17.1337L27.9061 17.1422L27.8709 17.1527L27.8452 17.1603L27.8116 17.1701L27.7775 17.1799L27.7514 17.1873L27.7162 17.197L27.685 17.2056C27.6761 17.208 27.6671 17.2105 27.6581 17.2128L27.6275 17.221C27.6115 17.2252 27.5955 17.2294 27.5794 17.2335L27.5641 17.2375L27.5232 17.2478L27.5002 17.2536C27.4838 17.2576 27.4674 17.2616 27.4509 17.2655L27.4395 17.2683L27.3961 17.2785L27.3734 17.2838L27.3396 17.2915L27.3104 17.298L27.2727 17.3062L27.2472 17.3118C27.236 17.3142 27.2247 17.3166 27.2135 17.3189L27.1827 17.3253C27.1231 17.3376 27.0632 17.3492 27.0031 17.3601L26.9921 17.3621L26.9675 17.3665C26.9331 17.3726 26.8986 17.3785 26.864 17.3842C26.8494 17.3866 26.8348 17.3889 26.8202 17.3912L26.7978 17.3948C26.7623 17.4004 26.7267 17.4057 26.6911 17.4107L26.6673 17.4141C26.6273 17.4197 26.5871 17.425 26.5469 17.4301L26.5379 17.4312C26.4851 17.4377 26.4322 17.4437 26.3792 17.4492C26.3447 17.4528 26.3101 17.4563 26.2754 17.4594H34V26.2237H20.1735L20.1916 25.9994L20.9445 24.1361L21.3126 22.4109L21.3796 21.9796L21.5134 21.6173C21.5127 21.6143 21.3826 21.0426 21.5134 20.7202C21.5876 20.5374 21.7231 20.4886 21.7979 20.3061C21.8853 20.0928 21.8061 19.9376 21.8815 19.7195C21.9674 19.4713 22.1318 19.3922 22.2329 19.1502C22.3647 18.8347 22.3097 18.6182 22.4003 18.2876C22.5388 17.7819 22.8346 17.5663 22.9022 17.0454C22.9369 16.7783 22.8594 16.6212 22.9022 16.3553C22.945 16.0891 23.1187 15.702 23.1197 15.6997C23.1209 15.6964 23.3784 14.9644 23.4544 14.4748C23.5061 14.1411 23.4524 13.9426 23.5213 13.6122C23.5991 13.239 23.8073 13.0761 23.8559 12.6978C23.9205 12.1959 23.6384 11.4211 23.6384 11.4211C23.6377 11.4199 23.5643 11.2971 23.4544 11.2831C23.3391 11.2684 23.0582 11.3518 23.0571 11.3521L22.9325 11.818C22.8265 8.39788 20.1042 5.65875 16.7614 5.65875C13.3515 5.65875 10.5873 8.50901 10.5873 12.025C10.5873 12.3047 10.6048 12.5801 10.6387 12.8503L10.5873 12.8531L10.1857 13.1809C10.1856 13.1811 10.0825 14.0951 10.1857 14.6646C10.272 15.1411 10.5858 15.8346 10.5873 15.8377L11.2565 17.7182V18.4256L11.5577 20.5994C11.5577 20.5994 11.6601 22.277 12.0429 23.2562C12.4083 24.191 13.3954 25.4266 13.3982 25.4301C13.3979 25.4306 13.2526 25.6544 13.1808 25.8096C13.1143 25.9532 13.0688 26.0904 13.0397 26.2237H0V17.4767C0 17.4493 0.000125144 17.4219 0.000376484 17.3945L0.000753607 17.3604C0.00120043 17.3255 0.00182871 17.2906 0.00263858 17.2558C0.00612073 17.1135 0.012867 16.9713 0.0228716 16.8293C0.0231508 16.8257 0.0234024 16.822 0.0236258 16.8184L0.0260138 16.7869C0.0306684 16.725 0.0359887 16.6632 0.0419738 16.6015C0.0437611 16.5832 0.0455759 16.5648 0.0474191 16.5465L0.0493884 16.5274C0.0508127 16.5137 0.0522923 16.5001 0.0538283 16.4864C0.0549733 16.4755 0.0561604 16.4647 0.0573892 16.4538L0.060782 16.4246C0.0624856 16.4096 0.0642589 16.3946 0.066102 16.3796L0.0706262 16.343L0.0740191 16.3162C0.0763091 16.2984 0.0786549 16.2807 0.0810566 16.263L0.0838639 16.2418L0.0885556 16.2086C0.0901753 16.1969 0.0918365 16.1851 0.09354 16.1734C0.0960534 16.1562 0.0986093 16.1391 0.101206 16.122L0.104055 16.1028L0.109751 16.0663L0.115659 16.0287L0.120853 15.9973L0.127513 15.9572L0.132414 15.9291L0.139745 15.887L0.145485 15.8554C0.147998 15.8415 0.150553 15.8276 0.15315 15.8136L0.15692 15.7937C0.160215 15.7761 0.16358 15.7586 0.167015 15.7411L0.171456 15.7185C0.174193 15.7046 0.176972 15.6907 0.179793 15.6768L0.185656 15.6482L0.194286 15.6068L0.200234 15.5789L0.208905 15.5389L0.216991 15.5027L0.223861 15.472L0.232323 15.4353L0.239695 15.4035C0.248007 15.3682 0.256553 15.333 0.265332 15.2978L0.273458 15.2655C0.277089 15.251 0.280776 15.2366 0.284518 15.2221L0.290382 15.1995L0.301316 15.1579L0.307599 15.1345C0.311592 15.1196 0.315614 15.1049 0.319663 15.0901L0.326952 15.0635L0.337215 15.0269L0.34576 14.9969L0.357908 14.9549L0.365281 14.9297L0.376215 14.8929L0.389703 14.8483L0.396321 14.8266L0.407758 14.7899L0.416639 14.7615L0.428578 14.7242C0.439306 14.6907 0.450254 14.6572 0.461419 14.6239L0.470216 14.5977L0.484752 14.5551L0.492962 14.5314L0.506367 14.4929L0.516882 14.4632L0.530747 14.4246L0.539711 14.3999L0.553409 14.3625L0.563756 14.3348C0.568923 14.3209 0.574159 14.3069 0.579465 14.2929L0.584576 14.2797C0.599014 14.2418 0.61369 14.2039 0.628602 14.1663L0.64297 14.1304L0.652019 14.1079C0.657381 14.0947 0.662798 14.0815 0.668272 14.0682L0.680128 14.0394C0.683116 14.0322 0.686131 14.025 0.689175 14.0178C0.703836 13.9826 0.718722 13.9476 0.73383 13.9126C0.748519 13.8788 0.763405 13.8451 0.778485 13.8115L0.789293 13.7873L0.80475 13.7534L0.818364 13.7237C0.82166 13.7165 0.824983 13.7094 0.828335 13.7023C0.911827 13.5225 1.0013 13.3457 1.0966 13.1722L1.13007 13.1118C1.15593 13.0656 1.18219 13.0197 1.20886 12.9741C2.57465 10.6332 4.97311 9.00564 7.75423 8.76156C7.97224 8.7425 8.19086 8.73199 8.40964 8.73007L8.48324 8.72972H0C0.000681968 8.32114 0.0288573 7.91311 0.0843241 7.50855C0.109133 7.32808 0.13942 7.14845 0.175142 6.96994C0.256161 6.56503 0.365129 6.1666 0.501214 5.7777C0.507079 5.76094 0.513 5.74422 0.518976 5.72751C0.548731 5.64405 0.579748 5.56107 0.612014 5.4786C0.637749 5.41279 0.664252 5.34731 0.691521 5.28216C0.766254 5.10363 0.846814 4.92775 0.93306 4.75482C1.04223 4.53572 1.16036 4.32148 1.28711 4.11268C1.57548 3.6376 1.90736 3.19212 2.27819 2.78236C2.53257 2.50117 2.80453 2.23745 3.09233 1.99289C3.27573 1.83708 3.4654 1.68926 3.66082 1.54983C3.7447 1.48995 3.82963 1.43163 3.91555 1.3749C4.69999 0.856718 5.56225 0.476082 6.46733 0.248442C7.07389 0.0961884 7.6949 0.0134062 8.31908 0.00159806C8.3737 0.000532651 8.42842 0 8.48324 0H25.5167L25.5715 0.000129506Z" fill="white"/>
</svg>
