<svg width="20" height="32" viewBox="0 0 20 32" fill="none" xmlns="http://www.w3.org/2000/svg">
<path d="M7.75624 16.3391C7.76947 16.3997 7.78165 16.4606 7.79276 16.5217C7.83027 16.7306 7.89507 16.8387 7.9207 17.0495C7.96523 17.4158 7.84246 17.9909 7.84197 17.9933C7.84264 17.9939 7.94229 18.0811 7.97974 18.1557C8.05204 18.2995 7.98018 18.5701 7.97974 18.5717C7.97908 18.5722 7.88192 18.6404 7.84197 18.7037C7.75201 18.846 7.84145 19.1384 7.84197 19.1401L7.72387 19.1908V19.4952C7.72364 19.4956 7.62057 19.643 7.57619 19.749C7.50803 19.9119 7.48775 20.1936 7.48763 20.1955C7.48709 20.1961 7.32707 20.3633 7.28094 20.5913C7.23474 20.8196 7.00954 21.0852 6.94885 21.393C6.34844 22.2455 6.0936 22.9598 6.03772 23.92H13.4651C13.4126 23.0179 13.0577 22.1998 12.5036 21.572C12.5031 21.5695 12.3853 20.9029 12.1727 20.5406C12.0249 20.2887 11.7023 19.9641 11.7002 19.9621L11.523 19.5764L11.5624 18.9574L11.4935 18.5311L11.4049 17.9933L11.3754 16.9277L11.5526 16.745V16.4811L11.6203 16.3391H15.0098C15.0915 16.3391 15.1727 16.3411 15.2534 16.3451L15.2735 16.3461C15.3211 16.3487 15.3685 16.3519 15.4157 16.3559L15.4242 16.3565L15.4348 16.3575L15.4562 16.3594C15.4733 16.3609 15.4903 16.3626 15.5072 16.3643L15.5196 16.3656C15.5583 16.3696 15.5969 16.3742 15.6355 16.3791L15.6427 16.3801C15.664 16.3828 15.6852 16.3858 15.7065 16.3888L15.7138 16.3899L15.7364 16.3932C15.7538 16.3958 15.7712 16.3986 15.7886 16.4014L15.7984 16.403L15.8049 16.404C15.8231 16.407 15.8413 16.4101 15.8595 16.4133L15.8754 16.4162L15.891 16.419C15.9182 16.424 15.9453 16.4293 15.9723 16.4347L15.981 16.4364C15.9891 16.4381 15.9971 16.4397 16.0051 16.4414L16.0115 16.4428L16.0304 16.4468L16.0426 16.4494L16.0572 16.4526L16.0734 16.4562L16.0912 16.4602L16.1262 16.4683L16.1319 16.4697C16.1594 16.4762 16.1868 16.4829 16.214 16.4899L16.2212 16.4917L16.2256 16.4928C16.2405 16.4967 16.2554 16.5006 16.2703 16.5046L16.2831 16.5081L16.2996 16.5126L16.3111 16.5158C16.3294 16.5208 16.3477 16.5261 16.366 16.5314L16.3703 16.5326C16.3986 16.5409 16.4267 16.5493 16.4546 16.558L16.4583 16.5592L16.4888 16.5688C16.5443 16.5865 16.5995 16.6053 16.6542 16.625L16.6628 16.6281C16.668 16.6299 16.6731 16.6318 16.6783 16.6337L16.6912 16.6384L16.71 16.6454C16.7134 16.6467 16.7168 16.6479 16.7202 16.6492L16.7323 16.6538L16.7495 16.6604C16.7683 16.6676 16.7872 16.6749 16.806 16.6824L16.8163 16.6866C16.823 16.6892 16.8298 16.692 16.8365 16.6947C16.8987 16.7199 16.9604 16.7465 17.0216 16.7743L17.0294 16.7779C17.0441 16.7846 17.0587 16.7914 17.0733 16.7982L17.0957 16.8088C17.1145 16.8177 17.1333 16.8268 17.1519 16.836C17.18 16.8498 17.208 16.8638 17.2358 16.8782C17.2435 16.8821 17.2511 16.8861 17.2588 16.89C17.2693 16.8955 17.2798 16.9011 17.2903 16.9066C17.2984 16.9109 17.3065 16.9152 17.3145 16.9196L17.3416 16.9342C17.3505 16.9391 17.3594 16.944 17.3683 16.9489C17.3774 16.9539 17.3864 16.959 17.3954 16.964C17.4042 16.969 17.413 16.974 17.4218 16.979C17.4303 16.9838 17.4387 16.9887 17.4471 16.9935L17.4743 17.0094C17.4828 17.0144 17.4914 17.0194 17.4999 17.0245C17.5082 17.0294 17.5165 17.0344 17.5248 17.0394C17.534 17.045 17.5433 17.0506 17.5525 17.0562C17.5608 17.0613 17.5691 17.0665 17.5774 17.0716C17.5859 17.0769 17.5944 17.0821 17.6029 17.0875C17.6115 17.0929 17.62 17.0983 17.6286 17.1037C17.6371 17.1091 17.6455 17.1145 17.654 17.12C17.6629 17.1258 17.6717 17.1315 17.6806 17.1374C17.6964 17.1476 17.7121 17.158 17.7277 17.1686C17.7374 17.175 17.747 17.1815 17.7566 17.188C17.7636 17.1928 17.7705 17.1976 17.7774 17.2023C17.7866 17.2086 17.7957 17.2149 17.8048 17.2213L17.8277 17.2374C17.837 17.244 17.8463 17.2506 17.8556 17.2572L17.8758 17.2719C17.8923 17.2837 17.9087 17.2958 17.925 17.3079C17.9343 17.3148 17.9436 17.3218 17.9529 17.3288C17.9597 17.334 17.9665 17.3392 17.9734 17.3444C17.9824 17.3512 17.9914 17.3582 18.0004 17.3651L18.0208 17.381C18.0303 17.3884 18.0397 17.3957 18.0491 17.4032L18.0662 17.4169C18.0763 17.4249 18.0862 17.4329 18.0962 17.441C18.1024 17.4461 18.1086 17.4511 18.1147 17.4562C18.1239 17.4637 18.133 17.4712 18.1422 17.4788C18.1488 17.4844 18.1554 17.4899 18.1621 17.4955C18.1707 17.5028 18.1793 17.51 18.1879 17.5173C18.1957 17.524 18.2034 17.5307 18.2111 17.5374C18.2183 17.5435 18.2254 17.5497 18.2325 17.5559C18.2403 17.5626 18.248 17.5694 18.2556 17.5762C18.2628 17.5826 18.27 17.5889 18.2772 17.5953C18.2925 17.609 18.3078 17.6228 18.3229 17.6367C18.331 17.6441 18.339 17.6515 18.347 17.659C18.3539 17.6653 18.3607 17.6717 18.3676 17.6781C18.3749 17.685 18.3821 17.6919 18.3895 17.6988C18.3971 17.706 18.4045 17.7132 18.4121 17.7204C18.419 17.727 18.4257 17.7336 18.4326 17.7402C18.4402 17.7476 18.4476 17.7549 18.4552 17.7623C18.4624 17.7693 18.4695 17.7764 18.4764 17.7835C18.4838 17.7906 18.491 17.7978 18.4981 17.805C18.505 17.8119 18.5117 17.8189 18.5186 17.8259C18.526 17.8335 18.5336 17.8411 18.541 17.8488C18.5474 17.8555 18.5538 17.8622 18.5602 17.8689C18.5679 17.8767 18.5752 17.8845 18.5826 17.8924L18.6019 17.9127L18.624 17.9366C18.6302 17.9432 18.6364 17.9499 18.6423 17.9566C18.6502 17.965 18.6578 17.9735 18.6654 17.9819C18.6721 17.9893 18.6785 17.9967 18.6851 18.004L18.7044 18.0256C18.7122 18.0346 18.7201 18.0436 18.7278 18.0525L18.744 18.0713L18.767 18.098L18.784 18.118C18.7911 18.1268 18.7985 18.1357 18.8059 18.1445C18.8113 18.1511 18.817 18.1577 18.8224 18.1644C18.83 18.1738 18.8377 18.1833 18.8453 18.1927C18.8505 18.199 18.8554 18.2053 18.8606 18.2117C18.8677 18.2205 18.8746 18.2294 18.8818 18.2384C18.8874 18.2456 18.8931 18.2529 18.899 18.2602C18.9045 18.2671 18.9096 18.2741 18.915 18.281C18.9224 18.2904 18.9296 18.2998 18.9367 18.3092L18.9515 18.3287C18.9589 18.3385 18.9663 18.3482 18.9734 18.358C18.9781 18.3642 18.9828 18.3705 18.9872 18.3768C18.9949 18.3869 19.0023 18.3971 19.0097 18.4073C19.0139 18.4133 19.0183 18.4193 19.0227 18.4254C19.0301 18.4358 19.0378 18.4463 19.0452 18.4568C19.0491 18.4626 19.0533 18.4685 19.0575 18.4744C19.0649 18.4851 19.0725 18.4958 19.0799 18.5066L19.0969 18.5316C19.1026 18.5398 19.108 18.5479 19.1137 18.5561C19.1196 18.565 19.1255 18.5738 19.1311 18.5827C19.1368 18.591 19.1422 18.5993 19.1477 18.6076C19.1533 18.6161 19.1587 18.6246 19.1644 18.6332C19.1698 18.6418 19.1755 18.6505 19.1812 18.6591C19.1859 18.6668 19.1908 18.6744 19.1957 18.6821C19.2019 18.6919 19.208 18.7016 19.2139 18.7114C19.2184 18.7184 19.2228 18.7255 19.227 18.7326C19.2337 18.7432 19.2401 18.7538 19.2465 18.7644L19.2576 18.7827C19.2642 18.7941 19.2711 18.8055 19.2778 18.8169L19.2881 18.8344C19.295 18.8464 19.3022 18.8585 19.3091 18.8706C19.3128 18.877 19.3162 18.8834 19.3199 18.8898C19.3261 18.9005 19.3322 18.9112 19.3381 18.922L19.3522 18.9472C19.3576 18.9573 19.3633 18.9673 19.3687 18.9774L19.3746 18.9884C19.3822 19.0027 19.3899 19.0169 19.3973 19.0313C19.4022 19.0403 19.4069 19.0493 19.4116 19.0583L19.4249 19.0842C19.43 19.094 19.435 19.104 19.4399 19.1138L19.4532 19.1404C19.4576 19.1491 19.4618 19.1578 19.466 19.1665C19.471 19.1763 19.4756 19.186 19.4806 19.1959C19.4852 19.206 19.4902 19.2163 19.4951 19.2265C19.4988 19.2345 19.5027 19.2425 19.5064 19.2505C19.5106 19.2597 19.5151 19.269 19.5192 19.2782C19.5239 19.2885 19.5289 19.2989 19.5335 19.3092C19.5365 19.3161 19.5397 19.3229 19.5427 19.3298L19.5589 19.3663C19.5597 19.3678 19.5602 19.3693 19.5609 19.3708C19.585 19.4259 19.6082 19.4815 19.6304 19.5375C19.6311 19.5392 19.6316 19.5408 19.6324 19.5424C19.6393 19.5597 19.6459 19.5771 19.6526 19.5945C19.6582 19.6091 19.6636 19.6237 19.6691 19.6383C19.6713 19.6438 19.6733 19.6494 19.6752 19.6549C19.676 19.6567 19.6767 19.6585 19.6772 19.6603C19.6802 19.6678 19.6829 19.6753 19.6856 19.6829C19.6866 19.6854 19.6873 19.6879 19.6883 19.6905C19.6979 19.7171 19.7073 19.7438 19.7166 19.7707C19.7179 19.7746 19.7191 19.7785 19.7206 19.7824C19.7225 19.7886 19.7248 19.7947 19.7267 19.8009C19.7314 19.8148 19.7361 19.8287 19.7405 19.8427L19.7464 19.8603C19.7509 19.8747 19.7556 19.8891 19.76 19.9034C19.7617 19.9091 19.7634 19.9148 19.7654 19.9204L19.7691 19.9328C19.78 19.9686 19.7906 20.0045 19.8009 20.0406L19.8016 20.0434C19.8043 20.0526 19.8068 20.0617 19.8093 20.071C19.8137 20.0865 19.8179 20.1021 19.8221 20.1177C19.8233 20.1222 19.8246 20.1268 19.8255 20.1313C19.8297 20.1471 19.8339 20.163 19.8379 20.1789C19.8487 20.2213 19.8591 20.2639 19.8687 20.3067C19.8731 20.3259 19.8773 20.3451 19.8815 20.3644C19.8825 20.3689 19.8834 20.3733 19.8842 20.3777L19.8945 20.4268L19.8968 20.4382C19.8977 20.4434 19.899 20.4487 19.9 20.4539L19.9088 20.4999C19.9101 20.5069 19.9113 20.514 19.9128 20.5209C19.9133 20.5241 19.9138 20.5273 19.9145 20.5304C19.9155 20.537 19.9167 20.5436 19.9179 20.5502L19.9209 20.5676C19.9256 20.5941 19.93 20.6207 19.9342 20.6473L19.9357 20.6555L19.9438 20.7098C19.9673 20.8702 19.9834 21.0316 19.9921 21.1935C19.9929 21.2049 19.9933 21.2164 19.9938 21.2278C19.9943 21.2397 19.9951 21.2516 19.9956 21.2635C19.9983 21.3337 19.9998 21.404 20 21.4742H15.0098C16.8589 21.4742 18.4732 22.5112 19.3352 24.0519C19.5311 24.402 19.6861 24.7747 19.797 25.1624C19.8034 25.1842 19.8095 25.2061 19.8154 25.2282C19.8301 25.2819 19.8438 25.3358 19.8566 25.39C19.8664 25.4309 19.8756 25.4718 19.8842 25.513C19.8901 25.5404 19.8958 25.5678 19.9012 25.5953C19.9039 25.6093 19.9066 25.623 19.9091 25.6367C19.917 25.6784 19.9241 25.7201 19.931 25.7617C19.9446 25.8458 19.9563 25.9302 19.966 26.0148C19.9707 26.0575 19.9751 26.0999 19.9788 26.1428C19.9815 26.1713 19.9837 26.2 19.9857 26.2287C19.9977 26.3916 20.0022 26.555 19.999 26.7183C19.9983 26.7628 19.997 26.807 19.9951 26.8515C19.9936 26.8832 19.9919 26.915 19.9901 26.9467C19.9879 26.9805 19.9857 27.0143 19.983 27.0481L19.9778 27.1083C19.9759 27.1297 19.9736 27.151 19.9714 27.1723C19.9685 27.2021 19.965 27.2318 19.9616 27.2613C19.9584 27.2872 19.9552 27.3131 19.9517 27.339C19.948 27.366 19.9441 27.3929 19.9399 27.4198C19.9312 27.4779 19.9215 27.5359 19.9108 27.5936C19.9022 27.6393 19.8931 27.6848 19.8834 27.7303L19.879 27.7504C19.8756 27.7666 19.8719 27.7829 19.8682 27.7991C19.8588 27.8406 19.8489 27.882 19.8384 27.9231C19.8364 27.9315 19.8342 27.9402 19.8319 27.9485L19.8275 27.9651C19.8236 27.9806 19.8194 27.9961 19.8152 28.0116C19.8083 28.0364 19.8014 28.0613 19.7942 28.0862C19.7928 28.0913 19.7913 28.0964 19.7898 28.1017L19.7854 28.1165C19.7841 28.1208 19.7829 28.1251 19.7817 28.1292C19.78 28.1353 19.778 28.1414 19.7763 28.1475C19.7718 28.1625 19.7671 28.1775 19.7625 28.1922C19.7516 28.2273 19.7403 28.2623 19.7287 28.2971C19.7238 28.3121 19.7186 28.3269 19.7134 28.3418C19.7035 28.3712 19.6932 28.4004 19.6824 28.4295C19.6772 28.444 19.6718 28.4587 19.6664 28.4732C19.6604 28.4887 19.6548 28.5039 19.6489 28.5192C19.6471 28.5238 19.6454 28.5283 19.6437 28.5327C19.642 28.537 19.6402 28.541 19.6388 28.5451C19.6368 28.5499 19.6348 28.5548 19.6331 28.5596C19.6306 28.5657 19.6282 28.572 19.6257 28.5781C19.6242 28.5817 19.6227 28.5855 19.6213 28.5893C19.6104 28.616 19.5993 28.6427 19.5882 28.6691L19.586 28.6744C19.5791 28.6912 19.5717 28.708 19.5646 28.7245C19.5634 28.7273 19.5621 28.7301 19.5611 28.7326L19.5397 28.7806C19.5385 28.7837 19.537 28.7867 19.5355 28.7898C19.5323 28.7971 19.5289 28.8045 19.5257 28.8119C19.5202 28.8233 19.5151 28.835 19.5096 28.8464C19.5059 28.8541 19.5025 28.8617 19.4988 28.8693L19.4825 28.9036C19.4798 28.9094 19.4769 28.915 19.4742 28.9206C19.468 28.9336 19.4616 28.9465 19.4554 28.9592C19.452 28.9661 19.4485 28.9727 19.4453 28.9793C19.4397 28.9907 19.434 29.0019 19.4281 29.0131C19.4236 29.0217 19.4192 29.0306 19.4148 29.0393C19.4098 29.0487 19.4049 29.0583 19.3997 29.068C19.3958 29.0756 19.3916 29.0835 19.3874 29.0911C19.3818 29.102 19.3758 29.1127 19.3702 29.1236C19.367 29.1295 19.3638 29.1353 19.3603 29.1414C19.3539 29.1534 19.3473 29.1655 19.3406 29.1775C19.3369 29.1838 19.3335 29.1902 19.3298 29.1965C19.3234 29.208 19.3169 29.2192 19.3105 29.2306C19.3061 29.2385 19.3014 29.2463 19.297 29.254C19.2913 29.2636 19.2859 29.2733 19.2802 29.2829C19.2755 29.2911 19.2706 29.2989 19.2657 29.3071C19.26 29.317 19.2541 29.3269 19.2482 29.3368C19.244 29.3437 19.2396 29.3505 19.2354 29.3576C19.2292 29.3678 19.2228 29.3782 19.2164 29.3886L19.2024 29.4107L19.1836 29.4407C19.1785 29.4488 19.1733 29.457 19.1681 29.4648C19.1624 29.4735 19.1568 29.4821 19.1514 29.4908C19.1459 29.4991 19.1403 29.5073 19.1348 29.5157C19.1287 29.5251 19.1225 29.5345 19.1161 29.5439C19.1112 29.5512 19.106 29.5586 19.1011 29.566C19.0952 29.5749 19.0893 29.5835 19.0833 29.5921L19.0626 29.6219C19.058 29.6287 19.053 29.6356 19.0484 29.6424C19.0424 29.6508 19.0363 29.6592 19.0304 29.6676L19.0121 29.6933C19.0065 29.7009 19.0008 29.7088 18.9951 29.7164C18.989 29.7248 18.9828 29.7331 18.9766 29.7413C18.9697 29.7509 18.9624 29.7606 18.9552 29.77C18.9503 29.7766 18.9454 29.7835 18.9402 29.7901L18.918 29.819C18.9131 29.8254 18.9081 29.8317 18.9035 29.8381C18.8963 29.847 18.8894 29.8556 18.8825 29.8645C18.8764 29.8721 18.8704 29.8797 18.8643 29.8874C18.8579 29.8955 18.8515 29.9034 18.8451 29.9115C18.8392 29.9189 18.833 29.9262 18.8271 29.9336C18.8194 29.943 18.8118 29.9522 18.8042 29.9613C18.799 29.9677 18.7938 29.974 18.7884 29.9801C18.7815 29.9887 18.7743 29.9971 18.7672 30.0055C18.7608 30.0131 18.7544 30.0208 18.748 30.0281C18.7418 30.0352 18.7357 30.0421 18.7295 30.0492C18.7159 30.0652 18.7021 30.0809 18.6881 30.0965C18.6817 30.1036 18.6753 30.111 18.6686 30.1183L18.647 30.1422C18.6403 30.1496 18.6334 30.1569 18.6265 30.1643C18.6198 30.1717 18.6132 30.179 18.6063 30.1862C18.5996 30.1935 18.5927 30.2006 18.5861 30.208C18.5789 30.2154 18.572 30.2227 18.5649 30.2301C18.5577 30.2375 18.5506 30.2451 18.5435 30.2525C18.5363 30.2598 18.5294 30.2669 18.5223 30.2741C18.5154 30.2812 18.5085 30.2883 18.5016 30.2952C18.4942 30.3028 18.4865 30.3104 18.4789 30.318L18.4584 30.3383C18.4515 30.3452 18.4446 30.3518 18.4375 30.3587C18.4299 30.3663 18.422 30.3739 18.4143 30.3813L18.3919 30.4029C18.3853 30.409 18.3789 30.4151 18.3723 30.4212L18.3463 30.4456L18.3265 30.4639C18.3199 30.47 18.3134 30.4758 18.3068 30.4819L18.2806 30.5055C18.274 30.5114 18.2673 30.5172 18.2606 30.5233C18.2523 30.5304 18.2441 30.5378 18.2358 30.5452C18.229 30.551 18.2221 30.5571 18.2152 30.5629C18.2068 30.5703 18.1984 30.5774 18.19 30.5848C18.1832 30.5904 18.1764 30.5962 18.1696 30.6018C18.1607 30.6094 18.1517 30.6171 18.1427 30.6244C18.1366 30.6298 18.1304 30.6348 18.1242 30.6399C18.1151 30.6473 18.106 30.6549 18.0968 30.6623C18.0897 30.6681 18.0825 30.674 18.0753 30.6796C18.0667 30.6867 18.0581 30.6935 18.0494 30.7004L18.0279 30.7172C18.0196 30.7238 18.0114 30.7304 18.003 30.7367L17.9773 30.7565C17.9698 30.7621 17.9623 30.768 17.9547 30.7736C17.9468 30.7797 17.9388 30.7855 17.9309 30.7916L17.907 30.8091C17.8986 30.8155 17.8902 30.8216 17.8819 30.8277L17.8573 30.8452L17.8318 30.8635C17.8237 30.8694 17.8155 30.8749 17.8074 30.8808L17.7832 30.8976C17.775 30.9031 17.7667 30.909 17.7584 30.9146L17.7301 30.9336C17.7231 30.9382 17.7161 30.943 17.7091 30.9479C17.6989 30.9545 17.6887 30.9613 17.6784 30.9679L17.6586 30.9809C17.6496 30.9867 17.6405 30.9926 17.6314 30.9982C17.6225 31.004 17.6136 31.0096 17.6047 31.0152C17.5964 31.0205 17.588 31.0256 17.5797 31.0307C17.5717 31.0358 17.5638 31.0406 17.5558 31.0457C17.5464 31.0513 17.5369 31.0571 17.5275 31.0627C17.5191 31.0678 17.5108 31.0729 17.5025 31.0777C17.4929 31.0835 17.4833 31.0891 17.4736 31.0947C17.4665 31.099 17.4594 31.1031 17.4523 31.1074L17.4229 31.1242L17.3972 31.1387C17.3884 31.1438 17.3796 31.1486 17.3707 31.1534L17.3446 31.1679C17.336 31.1727 17.3273 31.1773 17.3187 31.1821C17.3094 31.1869 17.3001 31.192 17.2908 31.1969C17.2815 31.2019 17.2722 31.2068 17.263 31.2116C17.255 31.2157 17.2469 31.22 17.2389 31.224C17.2287 31.2294 17.2185 31.2345 17.2083 31.2398C17.2001 31.2439 17.1918 31.2482 17.1835 31.2522L17.1544 31.2667C17.1461 31.2708 17.1379 31.2749 17.1296 31.2787C17.1155 31.2855 17.1014 31.2924 17.0872 31.299L17.0791 31.3028C17.0443 31.3193 17.0093 31.3353 16.9741 31.3508C16.9732 31.3511 16.9724 31.3516 16.9715 31.3518C16.9546 31.3595 16.9377 31.3668 16.9208 31.3739L16.9029 31.3816C16.8998 31.3828 16.8967 31.3844 16.8935 31.3856L16.8785 31.3917L16.8644 31.3978C16.8586 31.4001 16.8528 31.4024 16.8471 31.4049C16.8441 31.406 16.8411 31.4072 16.8382 31.4085L16.821 31.4154C16.8164 31.4171 16.8117 31.4192 16.807 31.4209C16.804 31.4222 16.801 31.4235 16.7979 31.4245C16.7916 31.427 16.7854 31.4296 16.7791 31.4319C16.7736 31.4342 16.7682 31.4362 16.7627 31.4382C16.7591 31.4397 16.7555 31.441 16.752 31.4425C16.7457 31.4448 16.7395 31.4474 16.7333 31.4497C16.7302 31.4509 16.7271 31.4519 16.7239 31.4532L16.7073 31.4593C16.7025 31.4611 16.6977 31.4631 16.6928 31.4649C16.6894 31.466 16.686 31.4672 16.6827 31.4685C16.6767 31.4707 16.6707 31.4728 16.6647 31.4751C16.6602 31.4766 16.6557 31.4784 16.6512 31.4799C16.6459 31.4819 16.6407 31.4837 16.6355 31.4855C16.633 31.4865 16.6305 31.4873 16.628 31.4883L16.6058 31.4959L16.5972 31.4989C16.591 31.501 16.5847 31.5033 16.5784 31.5056C16.5735 31.5071 16.5685 31.5089 16.5636 31.5104C16.5587 31.5122 16.5537 31.5137 16.5487 31.5155L16.5397 31.5185C16.5328 31.5208 16.5259 31.5231 16.519 31.5251C16.4934 31.5335 16.4678 31.5416 16.442 31.5498C16.439 31.5505 16.436 31.5515 16.433 31.5526C16.4282 31.5538 16.4234 31.5554 16.4186 31.5569C16.4131 31.5587 16.4075 31.5602 16.4019 31.562C16.3996 31.5625 16.3973 31.5632 16.3949 31.564C16.378 31.5691 16.3611 31.5739 16.3441 31.5787C16.3403 31.5797 16.3366 31.581 16.3328 31.582C16.3261 31.5838 16.3193 31.5858 16.3125 31.5876C16.3104 31.5884 16.3083 31.5889 16.3061 31.5894L16.2838 31.5955C16.2816 31.5963 16.2794 31.5968 16.2772 31.5973C16.2594 31.6021 16.2416 31.6069 16.2237 31.6115C16.2203 31.6123 16.2169 31.6133 16.2135 31.614C16.2072 31.6156 16.2008 31.6173 16.1945 31.6189L16.1857 31.6212C16.1692 31.6252 16.1525 31.6293 16.1359 31.6331C16.1303 31.6346 16.1247 31.6359 16.1192 31.6372L16.1031 31.641C16.1015 31.6412 16.1 31.6415 16.0984 31.642C16.09 31.6438 16.0816 31.6458 16.0732 31.6476C16.0713 31.6481 16.0694 31.6486 16.0675 31.6489C16.0594 31.6509 16.0512 31.6527 16.043 31.6544C15.9927 31.6651 15.9423 31.6751 15.8918 31.6847C15.8885 31.6852 15.8852 31.6859 15.8818 31.6865C15.854 31.6915 15.8261 31.6964 15.7982 31.7009C15.7971 31.7012 15.796 31.7012 15.7949 31.7014C15.7864 31.7027 15.7779 31.7042 15.7694 31.7055C15.7634 31.7065 15.7574 31.7073 15.7514 31.7083L15.7365 31.7106C15.7356 31.7108 15.7347 31.7108 15.7338 31.7111L15.6807 31.7187L15.658 31.7218C15.6431 31.7238 15.6281 31.7256 15.6131 31.7276L15.5944 31.7299C15.5903 31.7304 15.5861 31.7309 15.582 31.7312C15.5741 31.7322 15.5662 31.7332 15.5583 31.734L15.5511 31.7347C15.5477 31.7352 15.5444 31.7355 15.541 31.736L15.4899 31.7413L15.4648 31.7436L15.4565 31.7444L15.4398 31.7459C15.4346 31.7464 15.4294 31.7469 15.4242 31.7472C15.423 31.7474 15.4219 31.7474 15.4207 31.7474C15.3484 31.7535 15.2756 31.7581 15.2025 31.7609C15.2013 31.7611 15.2001 31.7612 15.1989 31.7612C15.1469 31.7632 15.0946 31.7642 15.0421 31.7647H4.99014C4.92684 31.7647 4.86378 31.7634 4.80102 31.7612C4.79986 31.7612 4.79868 31.7611 4.79752 31.7609C4.72434 31.7581 4.65157 31.7535 4.57923 31.7474C4.57809 31.7474 4.57693 31.7474 4.57578 31.7472C4.57058 31.7469 4.56538 31.7464 4.56018 31.7459L4.5435 31.7444L4.53514 31.7436L4.51006 31.7413L4.45893 31.736C4.45558 31.7355 4.45223 31.7352 4.44887 31.7347L4.44163 31.734C4.43374 31.7332 4.42583 31.7322 4.41795 31.7312C4.41383 31.7309 4.40972 31.7304 4.4056 31.7299L4.38685 31.7276C4.37187 31.7256 4.35689 31.7238 4.34196 31.7218L4.31924 31.7187L4.26611 31.7111C4.26522 31.7108 4.26434 31.7108 4.26345 31.7106L4.24857 31.7083C4.24258 31.7073 4.23659 31.7065 4.2306 31.7055C4.2221 31.7042 4.2136 31.7027 4.2051 31.7014C4.20399 31.7012 4.20288 31.7012 4.20177 31.7009C4.17383 31.6964 4.14596 31.6915 4.11816 31.6865C4.11481 31.6859 4.11146 31.6852 4.10811 31.6847C4.08273 31.6798 4.0574 31.675 4.03212 31.6699C4.00698 31.6649 3.98192 31.6598 3.95694 31.6544C3.94876 31.6527 3.94062 31.6509 3.93247 31.6489C3.93057 31.6486 3.92865 31.6481 3.92673 31.6476C3.91835 31.6458 3.90997 31.6438 3.90159 31.642C3.90003 31.6415 3.89844 31.6412 3.89684 31.641L3.8808 31.6372C3.8652 31.6336 3.84962 31.6298 3.83408 31.626C3.82976 31.625 3.82548 31.624 3.82116 31.6227L3.80544 31.6189C3.79911 31.6173 3.79278 31.6156 3.78647 31.614C3.78307 31.6133 3.77964 31.6123 3.77627 31.6115C3.7584 31.6069 3.74061 31.6021 3.72284 31.5973C3.72058 31.5968 3.71833 31.5962 3.71612 31.5955L3.69384 31.5894C3.69172 31.5889 3.68958 31.5884 3.68746 31.5876C3.68068 31.5858 3.67391 31.5838 3.66713 31.582C3.66339 31.581 3.65964 31.5797 3.6559 31.5787C3.63892 31.5739 3.62196 31.5691 3.60504 31.564C3.60274 31.5632 3.6004 31.5625 3.59804 31.562C3.59247 31.5602 3.58687 31.5587 3.58131 31.5569C3.57653 31.5554 3.57175 31.5538 3.56694 31.5526C3.56398 31.5515 3.56098 31.5506 3.55795 31.5498C3.5322 31.5416 3.50652 31.5335 3.48094 31.5251C3.47404 31.5231 3.46717 31.5208 3.46027 31.5185L3.45123 31.5155C3.44627 31.5137 3.44132 31.5122 3.43637 31.5104C3.43144 31.5089 3.42651 31.5071 3.42158 31.5056C3.4153 31.5033 3.40899 31.501 3.40271 31.4989L3.39418 31.4959L3.37193 31.4883C3.36947 31.4873 3.36698 31.4865 3.36451 31.4855C3.35926 31.4837 3.35402 31.4819 3.34879 31.4799C3.34426 31.4784 3.33975 31.4766 3.33521 31.4751C3.32925 31.4728 3.32326 31.4707 3.31732 31.4685C3.31392 31.4672 3.31052 31.4659 3.30712 31.4649C3.30232 31.4631 3.29751 31.4611 3.29271 31.4593L3.27603 31.4532C3.27292 31.4519 3.26982 31.4509 3.26671 31.4497C3.26048 31.4474 3.25424 31.4448 3.24801 31.4425C3.24444 31.441 3.24086 31.4397 3.23729 31.4382C3.23182 31.4362 3.22632 31.4342 3.22085 31.4319C3.21455 31.4295 3.20828 31.4271 3.20205 31.4245C3.19899 31.4234 3.19595 31.4222 3.19296 31.4209C3.18828 31.4192 3.1836 31.4171 3.17891 31.4154L3.16213 31.4085C3.15802 31.407 3.1539 31.4052 3.14979 31.4034C3.14555 31.4019 3.14131 31.4001 3.13707 31.3983C3.13136 31.396 3.12564 31.3935 3.11992 31.3912C3.11541 31.3894 3.11093 31.3874 3.10645 31.3856C3.10332 31.3844 3.10019 31.3828 3.09706 31.3816L3.07919 31.3739C3.06224 31.3668 3.04533 31.3595 3.02848 31.3518C3.02762 31.3516 3.02673 31.3511 3.02587 31.3508C2.98793 31.3341 2.95024 31.3169 2.91281 31.299C2.89862 31.2924 2.88448 31.2855 2.87038 31.2787C2.8621 31.2749 2.85385 31.2708 2.84559 31.2667L2.81644 31.2522C2.80816 31.2482 2.79991 31.2439 2.79165 31.2398C2.78143 31.2345 2.77123 31.2294 2.76105 31.224C2.75304 31.22 2.74503 31.2157 2.73702 31.2116C2.7277 31.2068 2.71842 31.2019 2.7092 31.1969C2.69989 31.192 2.6906 31.1869 2.68131 31.1821C2.67264 31.1773 2.66396 31.1727 2.65531 31.1679L2.62924 31.1534C2.6204 31.1486 2.61153 31.1438 2.60273 31.1387L2.57708 31.1242L2.54768 31.1074C2.54056 31.1031 2.53344 31.099 2.52634 31.0947C2.51671 31.0891 2.50707 31.0835 2.49749 31.0777C2.48913 31.0729 2.48083 31.0678 2.4725 31.0627C2.46304 31.0571 2.45358 31.0513 2.44416 31.0457C2.43618 31.0406 2.42822 31.0358 2.42026 31.0307C2.41193 31.0256 2.40358 31.0205 2.3953 31.0152C2.38635 31.0096 2.37746 31.004 2.36856 30.9982C2.35943 30.9925 2.35037 30.9868 2.34136 30.9809L2.32152 30.9679C2.3113 30.9613 2.30107 30.9545 2.29087 30.9479C2.28385 30.943 2.27682 30.9382 2.26983 30.9336L2.24154 30.9146L2.21493 30.8963C2.20805 30.8915 2.20115 30.8866 2.19428 30.8821C2.18467 30.8752 2.1751 30.8683 2.16554 30.8617C2.158 30.8564 2.15044 30.8511 2.1429 30.8455C2.13462 30.8396 2.12636 30.8335 2.11811 30.8277C2.10973 30.8216 2.10133 30.8155 2.093 30.8091L2.06907 30.7916C2.06114 30.7855 2.05318 30.7797 2.04527 30.7736C2.03771 30.768 2.03019 30.7621 2.02268 30.7565C2.01407 30.7499 2.00549 30.7433 1.99695 30.7367C1.98862 30.7304 1.98032 30.7238 1.97204 30.7172L1.9506 30.7004C1.94193 30.6935 1.93328 30.6867 1.92465 30.6796C1.91743 30.6739 1.91026 30.6681 1.90316 30.6623C1.894 30.6549 1.88488 30.6473 1.87579 30.6399C1.8696 30.6348 1.86339 30.6298 1.85726 30.6244C1.84824 30.6171 1.83929 30.6094 1.83035 30.6018C1.82355 30.5962 1.81675 30.5904 1.81 30.5848C1.80152 30.5774 1.79314 30.5703 1.78471 30.5629C1.77786 30.5571 1.77099 30.551 1.76414 30.5452C1.75588 30.5378 1.74763 30.5304 1.7394 30.5233C1.73272 30.5172 1.72599 30.5114 1.71934 30.5055L1.6932 30.4819C1.68662 30.4758 1.68004 30.47 1.67348 30.4639C1.66686 30.4578 1.66028 30.4517 1.65372 30.4456C1.64498 30.4374 1.63628 30.4293 1.62763 30.4212L1.60816 30.4029C1.60064 30.3958 1.59313 30.3884 1.58566 30.3813C1.57788 30.3739 1.57016 30.3663 1.56243 30.3587C1.55543 30.3518 1.54843 30.3452 1.54148 30.3383C1.53466 30.3315 1.52788 30.3249 1.5211 30.318L1.49833 30.2952C1.49141 30.2883 1.48453 30.2812 1.47764 30.2741C1.47064 30.2669 1.46359 30.2598 1.45662 30.2525C1.44937 30.2451 1.44218 30.2375 1.43498 30.2301L1.41396 30.208C1.40716 30.2006 1.40039 30.1935 1.39361 30.1862C1.38686 30.179 1.38008 30.1717 1.37338 30.1643L1.353 30.1422C1.34573 30.1341 1.33846 30.1262 1.33127 30.1183C1.32474 30.111 1.31831 30.1036 1.31182 30.0965L1.29214 30.0744L1.27035 30.0492C1.26432 30.0424 1.25825 30.0352 1.25224 30.0284C1.24403 30.0187 1.23584 30.0091 1.22768 29.9994C1.22265 29.9936 1.21762 29.9875 1.21262 29.9816C1.20638 29.974 1.20018 29.9666 1.19397 29.959C1.18697 29.9506 1.17994 29.9422 1.173 29.9336L1.15491 29.9115C1.1485 29.9034 1.1421 29.8955 1.13574 29.8876C1.12844 29.8785 1.1212 29.8693 1.11396 29.8599C1.10852 29.8531 1.10311 29.8462 1.09772 29.8393C1.09179 29.8317 1.08588 29.8241 1.08 29.8165C1.07325 29.8076 1.06647 29.799 1.05977 29.7901C1.05472 29.7835 1.04969 29.7766 1.04466 29.77C1.03749 29.7606 1.0303 29.7509 1.0232 29.7413C1.01707 29.7331 1.01098 29.7248 1.00489 29.7164C0.999226 29.7088 0.993509 29.7009 0.987866 29.6933C0.981731 29.6846 0.975669 29.6762 0.969583 29.6676L0.951693 29.6424C0.94688 29.6356 0.942091 29.6287 0.937327 29.6219C0.930395 29.612 0.923504 29.602 0.916653 29.5921C0.91069 29.5835 0.904801 29.5749 0.898887 29.566C0.893827 29.5586 0.8888 29.5512 0.883806 29.5439C0.877531 29.5345 0.871297 29.5251 0.865104 29.5157C0.859633 29.5073 0.854114 29.4991 0.848693 29.4908L0.831937 29.4648C0.826697 29.4568 0.821522 29.4488 0.816413 29.4407C0.810056 29.4308 0.803772 29.4206 0.797489 29.4107C0.792807 29.4034 0.788157 29.396 0.783541 29.3886C0.777159 29.3782 0.770851 29.3678 0.764518 29.3576C0.760305 29.3505 0.756066 29.3437 0.751877 29.3368C0.745947 29.3269 0.740041 29.317 0.73416 29.3071C0.729355 29.2989 0.724501 29.2911 0.719721 29.2829C0.714102 29.2733 0.708526 29.2636 0.70299 29.254C0.698456 29.2463 0.693896 29.2385 0.689412 29.2306C0.682931 29.2192 0.676525 29.208 0.670118 29.1965L0.659473 29.1775C0.653633 29.1671 0.647867 29.1564 0.642076 29.146C0.63769 29.1379 0.633255 29.13 0.628893 29.1218C0.624334 29.1135 0.61985 29.1048 0.615316 29.0964C0.610215 29.0868 0.60509 29.0774 0.600038 29.0677C0.595061 29.0583 0.590133 29.0487 0.585205 29.0393C0.58072 29.0306 0.57621 29.0217 0.571775 29.0131C0.566033 29.0019 0.560415 28.9907 0.554748 28.9793C0.551396 28.9727 0.547972 28.9661 0.54462 28.9592C0.538263 28.9465 0.532004 28.9336 0.525745 28.9206C0.52301 28.915 0.520225 28.9094 0.51749 28.9036C0.511987 28.8922 0.506525 28.8807 0.501104 28.8693L0.490385 28.8464C0.484988 28.835 0.479715 28.8233 0.474393 28.8119L0.464364 28.7898L0.460224 28.7806C0.453045 28.7646 0.44594 28.7486 0.438909 28.7326C0.437751 28.7301 0.436593 28.7273 0.43541 28.7245C0.428166 28.708 0.420971 28.6912 0.413849 28.6744L0.411705 28.6691C0.400518 28.6427 0.389503 28.616 0.37876 28.5893C0.377257 28.5855 0.375754 28.5817 0.374251 28.5781C0.371812 28.572 0.369372 28.5657 0.366933 28.5596L0.361265 28.5451C0.359639 28.541 0.358012 28.537 0.356386 28.5327C0.354661 28.5283 0.352936 28.5238 0.351187 28.5192C0.345297 28.5039 0.339408 28.4887 0.333642 28.4732C0.328196 28.4587 0.322849 28.444 0.317527 28.4295C0.312171 28.4148 0.306873 28.4 0.301633 28.3853C0.296507 28.3708 0.291456 28.3563 0.286479 28.3418C0.281353 28.3269 0.276252 28.3121 0.27125 28.2971C0.254699 28.2475 0.238854 28.1976 0.223718 28.1475C0.221878 28.1414 0.220062 28.1353 0.218272 28.1292C0.217015 28.1251 0.215734 28.1208 0.214502 28.1165C0.213023 28.1117 0.211594 28.1066 0.21014 28.1017C0.208637 28.0964 0.207159 28.0913 0.20568 28.0862C0.194128 28.046 0.183022 28.0056 0.172365 27.9651L0.168078 27.9485C0.165885 27.9402 0.163716 27.9315 0.161572 27.9231C0.147086 27.8658 0.133531 27.8082 0.120914 27.7504C0.119461 27.7438 0.118007 27.7369 0.116578 27.7303C0.054953 27.4412 0.0176146 27.1472 0.00497742 26.8515C0.001672 26.7742 1.25285e-05 26.6968 0 26.6195V21.4742L4.92554e-05 21.4594C0.000131393 21.4423 0.000295397 21.4252 0.000541809 21.4081C0.00136471 21.3482 0.00320523 21.2883 0.0060618 21.2285C0.0202357 20.9278 0.0599697 20.629 0.124807 20.3355C0.13082 20.3084 0.137038 20.2814 0.143461 20.2545C0.173401 20.1284 0.208039 20.0035 0.247299 19.8802C0.252507 19.8637 0.257804 19.8474 0.263193 19.831L0.266963 19.8196C0.26946 19.8121 0.271973 19.8046 0.274503 19.7971C0.285263 19.7651 0.296319 19.7332 0.307671 19.7015C0.310397 19.6939 0.313149 19.6863 0.315925 19.6787L0.318463 19.6717L0.323687 19.6575L0.32933 19.6423C0.335589 19.6255 0.341922 19.6087 0.348328 19.5919L0.350842 19.5854C0.356903 19.5697 0.363039 19.554 0.369249 19.5384L0.37435 19.5255C0.380707 19.5096 0.387146 19.4937 0.393668 19.4779L0.397192 19.4693C0.400543 19.4613 0.403919 19.4532 0.407319 19.4452C0.412001 19.4339 0.416724 19.4227 0.421488 19.4115C0.425726 19.4016 0.430006 19.3918 0.434326 19.3819C0.438104 19.3732 0.441915 19.3644 0.445759 19.3556L0.458499 19.3272C0.462853 19.3174 0.467222 19.3077 0.471608 19.298C0.475649 19.2892 0.479707 19.2804 0.483781 19.2716C0.488216 19.262 0.492685 19.2524 0.497186 19.2428C0.501621 19.2334 0.506081 19.224 0.510566 19.2146C0.515001 19.2053 0.51947 19.196 0.523971 19.1867L0.535183 19.1638C0.540818 19.1523 0.546484 19.1409 0.552185 19.1294L0.560292 19.1134C0.566732 19.1005 0.573237 19.0877 0.579808 19.075C0.582633 19.0695 0.585484 19.064 0.588358 19.0586C0.594913 19.0459 0.601509 19.0333 0.608146 19.0207C0.612154 19.0132 0.61617 19.0057 0.620195 18.9983C0.625599 18.9881 0.631053 18.978 0.636557 18.9679L0.648458 18.9462C0.654849 18.9346 0.661272 18.923 0.667728 18.9115L0.674972 18.8987C0.6822 18.8859 0.689478 18.8731 0.696805 18.8603C0.702718 18.8501 0.708657 18.84 0.71462 18.8298L0.727064 18.8085C0.733191 18.7982 0.739335 18.788 0.745495 18.7777C0.749881 18.7704 0.754292 18.7631 0.758728 18.7557C0.764297 18.7466 0.769882 18.7375 0.775484 18.7285C0.780642 18.7201 0.785825 18.7117 0.791033 18.7033C0.796996 18.6938 0.802975 18.6843 0.808971 18.6749C0.813965 18.667 0.818984 18.659 0.824027 18.6511C0.829842 18.6421 0.835682 18.6331 0.841547 18.6241C0.846771 18.616 0.852028 18.6079 0.857318 18.5999C0.863067 18.5911 0.868858 18.5825 0.874689 18.5738C0.880094 18.5656 0.885515 18.5575 0.890953 18.5494C0.895749 18.5423 0.900563 18.5352 0.905392 18.5282C0.912358 18.5179 0.919355 18.5077 0.926386 18.4975C0.931775 18.4898 0.93718 18.4821 0.942601 18.4744C0.948219 18.4663 0.95387 18.4583 0.959554 18.4502C0.966125 18.441 0.972721 18.4318 0.979341 18.4226C0.984729 18.4151 0.99015 18.4075 0.995604 18.4C1.00224 18.391 1.00889 18.3819 1.01556 18.3729C1.02072 18.3658 1.0259 18.3588 1.03109 18.3518C1.03712 18.3438 1.04316 18.3358 1.04922 18.3277C1.05607 18.3186 1.06296 18.3096 1.06987 18.3005C1.07487 18.294 1.07988 18.2875 1.0849 18.281C1.09216 18.2716 1.09947 18.2622 1.10681 18.2528C1.11179 18.2465 1.11677 18.2402 1.12177 18.2339C1.12903 18.2247 1.13631 18.2155 1.1436 18.2064C1.15032 18.198 1.15706 18.1897 1.16383 18.1814L1.18123 18.1601C1.1877 18.1522 1.1942 18.1443 1.20074 18.1365C1.2204 18.1129 1.24027 18.0894 1.26035 18.0661C1.26612 18.0594 1.27191 18.0528 1.27775 18.0461C1.28519 18.0375 1.29265 18.029 1.30014 18.0205L1.3188 17.9995C1.32591 17.9916 1.33304 17.9836 1.34019 17.9757C1.34702 17.9682 1.35386 17.9607 1.36071 17.9532C1.36723 17.946 1.37378 17.9389 1.38035 17.9318C1.38817 17.9234 1.39601 17.915 1.40386 17.9067C1.40984 17.9003 1.41583 17.8939 1.42182 17.8876C1.42882 17.8802 1.43584 17.8729 1.44287 17.8656C1.45014 17.858 1.45744 17.8504 1.46475 17.8429C1.47134 17.8361 1.47795 17.8293 1.48458 17.8226C1.49181 17.8152 1.49907 17.8079 1.50637 17.8005C1.51397 17.7929 1.52159 17.7853 1.52921 17.7777C1.53588 17.7711 1.54256 17.7645 1.54924 17.7579C1.55682 17.7505 1.56441 17.7431 1.57204 17.7357L1.59251 17.7159C1.60004 17.7087 1.60758 17.7016 1.61513 17.6944L1.63682 17.6739C1.64462 17.6666 1.65244 17.6594 1.66028 17.6522C1.66693 17.646 1.6736 17.6399 1.68028 17.6337C1.68825 17.6265 1.69624 17.6192 1.70426 17.612C1.71152 17.6054 1.71881 17.5988 1.72612 17.5923C1.73318 17.586 1.74027 17.5798 1.74738 17.5735C1.75547 17.5663 1.76358 17.5592 1.77173 17.5521C1.77996 17.545 1.78821 17.5378 1.79649 17.5307C1.80274 17.5254 1.809 17.52 1.81529 17.5146C1.82397 17.5072 1.83268 17.4999 1.84144 17.4925C1.84883 17.4863 1.85623 17.4801 1.86364 17.474C1.87102 17.4679 1.87842 17.4618 1.88584 17.4557C1.89388 17.4491 1.90193 17.4425 1.91001 17.4359C1.91775 17.4297 1.92551 17.4234 1.9333 17.4172C1.94133 17.4108 1.94938 17.4044 1.95745 17.398C1.96473 17.3922 1.97201 17.3865 1.97931 17.3809C2.00366 17.3617 2.02822 17.3429 2.05298 17.3244C2.06041 17.3188 2.06785 17.3132 2.07531 17.3077C2.08424 17.301 2.09321 17.2944 2.10222 17.2878L2.1226 17.273C2.13207 17.2661 2.14158 17.2592 2.1511 17.2524L2.17281 17.237C2.18183 17.2307 2.19086 17.2243 2.19989 17.218C2.21642 17.2065 2.233 17.1951 2.24962 17.1838C2.25785 17.1782 2.2661 17.1727 2.27436 17.1671C2.28238 17.1617 2.29043 17.1564 2.29851 17.151C2.30705 17.1454 2.31562 17.1398 2.32421 17.1342C2.33301 17.1284 2.34184 17.1227 2.35067 17.117C2.35848 17.112 2.3663 17.107 2.37413 17.102C2.38315 17.0963 2.39218 17.0905 2.40121 17.0849C2.40921 17.0799 2.41722 17.0749 2.42524 17.0699C2.43417 17.0644 2.44311 17.0589 2.45205 17.0534C2.46138 17.0477 2.47072 17.0421 2.48006 17.0365C2.48764 17.0319 2.49523 17.0274 2.50283 17.0228C2.5122 17.0173 2.52159 17.0118 2.531 17.0063L2.55596 16.9917C2.56468 16.9867 2.57342 16.9817 2.58218 16.9767C2.59092 16.9717 2.59968 16.9668 2.60847 16.9618L2.63494 16.9471C2.64402 16.9421 2.65313 16.9371 2.66226 16.9321L2.68774 16.9183C2.70661 16.9082 2.72553 16.8982 2.74451 16.8883C2.75186 16.8845 2.75919 16.8807 2.76652 16.8769C2.7852 16.8673 2.80396 16.8578 2.82278 16.8484C2.83196 16.8439 2.84113 16.8394 2.8503 16.8349L2.87635 16.8222C2.88605 16.8175 2.89579 16.8129 2.90554 16.8082C2.91417 16.8041 2.9228 16.8 2.93144 16.796C2.94079 16.7916 2.95015 16.7873 2.95951 16.783C2.98304 16.7722 3.00663 16.7615 3.0303 16.751L3.03486 16.7491C3.07071 16.7333 3.10674 16.718 3.14294 16.7031L3.14511 16.7022C3.16699 16.6932 3.18894 16.6844 3.21095 16.6757L3.22692 16.6695L3.23571 16.6661L3.25429 16.6589L3.26526 16.6547L3.28376 16.6478L3.28835 16.6461C3.31555 16.6359 3.34286 16.6259 3.37028 16.6162L3.37415 16.6148L3.39849 16.6063L3.4205 16.5988L3.42395 16.5976L3.43853 16.5926C3.45371 16.5876 3.46892 16.5825 3.48415 16.5775L3.50137 16.572L3.51335 16.5681L3.52682 16.5639L3.5437 16.5585L3.54888 16.557C3.58421 16.546 3.61968 16.5354 3.65525 16.5252L3.6587 16.5243L3.67573 16.5194L3.68973 16.5155L3.69909 16.5129C3.71618 16.5082 3.7333 16.5036 3.75044 16.4991L3.7553 16.4978C3.7633 16.4957 3.77131 16.4936 3.77935 16.4916L3.78662 16.4897C3.81643 16.4821 3.84631 16.4748 3.87626 16.4677L3.89942 16.4623L3.90965 16.46L3.92899 16.4556L3.94279 16.4526C3.9584 16.4492 3.97404 16.4458 3.98971 16.4425L3.99989 16.4404C4.03687 16.4327 4.07395 16.4255 4.11109 16.4186L4.12679 16.4158L4.14192 16.4131L4.14958 16.4118C4.16764 16.4086 4.18572 16.4055 4.20382 16.4026L4.2084 16.4018C4.23714 16.3972 4.26592 16.3928 4.29474 16.3886L4.30943 16.3865C4.32566 16.3842 4.34191 16.382 4.35817 16.3799L4.37 16.3784L4.3884 16.3761L4.41553 16.3728L4.41898 16.3724C4.4583 16.3678 4.49767 16.3636 4.53709 16.36L4.54475 16.3593L4.55118 16.3587C4.59094 16.3551 4.63081 16.352 4.67079 16.3494L4.68181 16.3487C4.70324 16.3474 4.72468 16.3462 4.74612 16.3451C4.7634 16.3443 4.78071 16.3435 4.79804 16.3428C4.82272 16.3418 4.84742 16.3411 4.87211 16.3405C4.88399 16.3402 4.89587 16.34 4.90777 16.3398C4.93522 16.3393 4.96268 16.3391 4.99014 16.3391H7.75624ZM5.88585 28.7811H6.79137V27.7054H7.43561L7.68631 26.9747H6.79137V26.4673H7.8604L8.11026 25.7389V25.7366H5.88585V28.7811ZM8.36616 28.7811H9.31106V25.7366H8.36616V28.7811ZM9.90161 28.7811H10.8465V27.7054H11.4398L11.6905 26.9747H10.8465V26.4673H11.8646L12.1153 25.7366H9.90161V28.7811ZM11.9974 27.7867L11.7823 28.3751L11.6339 28.7811H12.5878L12.6943 28.3751H13.6975L13.8091 28.7811H14.7244L14.567 28.3126L14.3901 27.7867L13.7008 25.7366H12.7468L11.9974 27.7867ZM13.5358 27.7867H12.8485L13.1841 26.5064L13.5358 27.7867ZM15.0421 7.61798e-05C15.0943 0.000436406 15.1464 0.0016222 15.1986 0.00363318L15.2022 0.00373485C15.2412 0.00527212 15.2802 0.00727096 15.3192 0.00973096L15.3297 0.0103916C15.3581 0.0122548 15.3864 0.014355 15.4147 0.0166925L15.4242 0.0174548L15.4348 0.0183948L15.4562 0.0203004L15.4608 0.0207069C15.5429 0.0282885 15.6249 0.0379632 15.7065 0.049722L15.709 0.0500777C15.7391 0.0544477 15.7691 0.0590718 15.7989 0.06395L15.8049 0.0649663C15.8337 0.069709 15.8625 0.0747057 15.8911 0.0799565L15.9002 0.0816589C15.9478 0.0905025 15.9953 0.100065 16.0426 0.110344L16.0572 0.113545L16.0734 0.117102L16.0799 0.118576C16.1073 0.124741 16.1347 0.131144 16.162 0.137783L16.181 0.142484L16.1945 0.145837L16.1993 0.147082L16.2212 0.152621L16.2256 0.15379C16.2405 0.157635 16.2554 0.161548 16.2703 0.165528L16.2837 0.169136L16.3024 0.174294L16.3111 0.176682L16.3302 0.182017L16.343 0.185676L16.3503 0.187734C16.3852 0.197745 16.42 0.208154 16.4546 0.21896L16.4583 0.220103C16.4649 0.222135 16.4715 0.224202 16.478 0.226302L16.4888 0.229707L16.5063 0.235347L16.5187 0.239387L16.5303 0.243223C16.5514 0.250138 16.5724 0.257219 16.5933 0.264464L16.6072 0.26924L16.6144 0.271781C16.6257 0.275724 16.637 0.279705 16.6482 0.283723L16.6633 0.289185L16.6737 0.292945C16.6894 0.298654 16.705 0.304455 16.7207 0.310349L16.7323 0.314719L16.7501 0.321528L16.7603 0.325467L16.7795 0.332911L16.7843 0.334816L16.8064 0.343531L16.8163 0.347469C16.8482 0.360259 16.8799 0.373386 16.9115 0.38685L16.9177 0.389442C16.9341 0.396454 16.9505 0.40356 16.9668 0.410759L16.9735 0.41368C16.9896 0.420795 17.0056 0.427993 17.0216 0.435277L17.0294 0.438783C17.062 0.453712 17.0945 0.469008 17.1268 0.484668C17.1991 0.51968 17.2706 0.556446 17.3412 0.594936C17.3687 0.609975 17.396 0.625246 17.4232 0.640745C17.4312 0.645284 17.4392 0.649858 17.4471 0.654465C17.4647 0.664613 17.4821 0.674861 17.4996 0.685208C17.509 0.690797 17.5184 0.696438 17.5278 0.702129L17.5506 0.715976C17.5601 0.721752 17.5695 0.72757 17.5789 0.733431L17.6025 0.748141C17.6367 0.769694 17.6707 0.791622 17.7044 0.813921C17.7214 0.825154 17.7383 0.836502 17.7551 0.847966C17.7631 0.853437 17.7712 0.858942 17.7791 0.864481C17.7877 0.870376 17.7963 0.876304 17.8049 0.882266L17.8305 0.900305C17.8383 0.905827 17.8461 0.911374 17.8539 0.916947C17.8618 0.922604 17.8696 0.928279 17.8775 0.93397C17.8863 0.940406 17.8952 0.94686 17.904 0.95333C17.9111 0.958496 17.918 0.963671 17.925 0.968854C17.9343 0.975782 17.9436 0.982726 17.9529 0.989688C17.9597 0.994871 17.9665 1.00007 17.9734 1.00529C17.9824 1.01216 17.9914 1.01908 18.0004 1.02602C18.0072 1.03129 18.014 1.03659 18.0208 1.04193C18.0301 1.04912 18.0393 1.05636 18.0485 1.06365C18.0561 1.06966 18.0636 1.0757 18.0712 1.08176C18.0786 1.08769 18.086 1.09365 18.0934 1.09965C18.1022 1.1068 18.1109 1.11399 18.1197 1.12122C18.1267 1.12698 18.1338 1.13276 18.1408 1.13855C18.1491 1.14549 18.1574 1.15246 18.1656 1.15943C18.1727 1.16535 18.1797 1.17129 18.1867 1.17727C18.195 1.18428 18.2032 1.19134 18.2113 1.19843C18.2184 1.20453 18.2255 1.21065 18.2325 1.21678L18.2556 1.2371C18.2628 1.24344 18.27 1.24982 18.2772 1.25624C18.2859 1.26403 18.2946 1.27187 18.3033 1.27976C18.3098 1.28569 18.3164 1.29164 18.3229 1.2976C18.331 1.30502 18.339 1.31245 18.347 1.31991C18.3539 1.32624 18.3607 1.33261 18.3676 1.33901C18.3749 1.34587 18.3821 1.35281 18.3895 1.35972C18.3968 1.36683 18.4045 1.37395 18.4119 1.38111L18.4355 1.40393C18.4417 1.40992 18.4478 1.41595 18.454 1.42202C18.4614 1.42939 18.469 1.43683 18.4764 1.44425C18.4836 1.45146 18.491 1.45868 18.4981 1.46595C18.505 1.47288 18.5117 1.47984 18.5186 1.48681C18.526 1.49443 18.5336 1.50205 18.541 1.50967L18.5595 1.52891C18.5671 1.53696 18.5748 1.54504 18.5826 1.55317C18.5898 1.56087 18.5972 1.56862 18.6043 1.57639L18.6228 1.59626C18.6317 1.60579 18.6403 1.61542 18.6492 1.62502C18.6539 1.6301 18.6585 1.63518 18.663 1.64029C18.6713 1.64954 18.6797 1.65883 18.6881 1.66816L18.7044 1.68643C18.7132 1.69652 18.7219 1.70668 18.7307 1.71684C18.7349 1.72154 18.7389 1.72624 18.7431 1.73097C18.7514 1.74065 18.7596 1.75043 18.7679 1.76019C18.7734 1.76644 18.7785 1.77269 18.784 1.77896C18.7911 1.78775 18.7985 1.7966 18.8059 1.80541C18.8113 1.81204 18.817 1.81865 18.8224 1.82531C18.83 1.83472 18.8377 1.84418 18.8453 1.85366C18.8505 1.85996 18.8554 1.86626 18.8606 1.87259C18.8677 1.88143 18.8746 1.89035 18.8818 1.89927L18.8988 1.92094C18.9059 1.93009 18.9131 1.93928 18.92 1.94846L18.9355 1.9685C18.9429 1.97808 18.95 1.98771 18.9572 1.99731C18.9624 2.00397 18.9673 2.01063 18.9722 2.01731L18.9929 2.04536C18.9981 2.05257 19.0035 2.05979 19.0087 2.06706C19.0146 2.07503 19.0203 2.08309 19.0262 2.09109C19.0323 2.09986 19.0387 2.1086 19.0449 2.11741C19.0521 2.1274 19.059 2.13746 19.0658 2.1475C19.07 2.15326 19.074 2.159 19.0779 2.1648C19.0853 2.17539 19.0925 2.18606 19.0999 2.19673C19.1043 2.20347 19.109 2.21018 19.1134 2.21696C19.1203 2.22687 19.1267 2.23688 19.1334 2.24684C19.138 2.2537 19.1425 2.26056 19.1469 2.26744C19.1533 2.27692 19.1595 2.28647 19.1656 2.296C19.1706 2.30393 19.1758 2.31183 19.1809 2.31978C19.1878 2.3305 19.1945 2.3413 19.2014 2.35207C19.2048 2.35787 19.2085 2.36366 19.2122 2.36948C19.2199 2.3816 19.2272 2.39379 19.2346 2.40599C19.2381 2.4115 19.2415 2.41699 19.2447 2.4225C19.2509 2.43244 19.2568 2.44242 19.2627 2.45241C19.2674 2.46046 19.2723 2.46849 19.277 2.47657L19.294 2.50553C19.2985 2.51326 19.3029 2.52098 19.3076 2.52876C19.3142 2.54062 19.3209 2.55251 19.3278 2.56443C19.3307 2.56999 19.3339 2.57553 19.3372 2.5811C19.3436 2.59278 19.35 2.60455 19.3566 2.61631L19.3677 2.63648C19.3726 2.64593 19.3778 2.65546 19.383 2.66494L19.397 2.69126C19.4022 2.7014 19.4076 2.71159 19.4128 2.72178C19.4167 2.72952 19.4209 2.73727 19.4249 2.74505C19.4305 2.75597 19.436 2.76697 19.4416 2.77798L19.4527 2.80041L19.469 2.83311C19.4724 2.84058 19.4761 2.84802 19.4798 2.85552L19.4961 2.88969C19.4993 2.89665 19.5027 2.90359 19.5059 2.91055L19.5237 2.94881C19.5264 2.95501 19.5294 2.96121 19.5323 2.96744L19.5464 2.9993L19.5589 3.02717C19.5597 3.02867 19.5602 3.03017 19.5609 3.03167C19.5767 3.06803 19.5922 3.10462 19.6075 3.14143C19.608 3.14313 19.6087 3.14483 19.6094 3.14651C19.6166 3.16373 19.6235 3.18099 19.6304 3.19831L19.6356 3.21125L19.6415 3.22672C19.6513 3.2521 19.6612 3.27758 19.6705 3.30317C19.672 3.30675 19.6733 3.31031 19.6745 3.31387C19.6765 3.31879 19.6782 3.32372 19.6802 3.32865C19.6816 3.33315 19.6834 3.33765 19.6851 3.34214L19.6903 3.35693C19.6922 3.36255 19.6945 3.36816 19.6964 3.3738C19.7018 3.38902 19.707 3.40429 19.7124 3.41958C19.7137 3.42357 19.7151 3.42759 19.7166 3.43158C19.7179 3.43549 19.7191 3.4394 19.7206 3.44332C19.7225 3.44949 19.7248 3.45566 19.7267 3.46184C19.742 3.50716 19.7565 3.55279 19.7706 3.59868L19.7743 3.6108C19.7851 3.64637 19.7955 3.68212 19.8056 3.71802C19.8068 3.72269 19.808 3.72737 19.8095 3.73204C19.8191 3.76739 19.8285 3.8029 19.8376 3.83858C19.8388 3.84376 19.8403 3.84897 19.8416 3.85418C19.8657 3.95006 19.8871 4.04704 19.9056 4.14499C19.9069 4.15027 19.9078 4.15556 19.9088 4.16084C19.9115 4.17624 19.9145 4.19166 19.9172 4.20711L19.9209 4.22845C19.9298 4.27855 19.9378 4.32879 19.9451 4.37917C19.9808 4.62587 19.9995 4.87829 20 5.13513V5.14542L19.9998 5.18922C19.9993 5.26126 19.9973 5.33294 19.9938 5.40427C19.9936 5.40783 19.9933 5.41139 19.9933 5.41494C19.9906 5.4685 19.9872 5.52186 19.9828 5.57498C19.9825 5.58039 19.982 5.58583 19.9815 5.59124L19.9793 5.61739C19.9788 5.6215 19.9786 5.62562 19.9781 5.62973L19.9751 5.66287L19.9736 5.67582C19.9729 5.68548 19.9719 5.69511 19.9709 5.70474C19.9704 5.7074 19.9702 5.71007 19.9699 5.71274L19.9662 5.74755L19.9648 5.76058C19.9635 5.76996 19.9625 5.77931 19.9613 5.78866C19.9608 5.79392 19.9601 5.79918 19.9593 5.80443L19.9564 5.82832C19.9556 5.83429 19.9549 5.84026 19.9539 5.8462C19.9529 5.85477 19.9517 5.86333 19.9507 5.87187C19.9497 5.87761 19.949 5.88332 19.9483 5.88907C19.947 5.89801 19.9458 5.90698 19.9443 5.9159C19.9438 5.91966 19.9433 5.92339 19.9426 5.92713C19.9414 5.93663 19.9399 5.94613 19.9384 5.95561C19.9379 5.95947 19.9372 5.96331 19.9367 5.96717L19.9315 5.99949C19.9308 6.0037 19.93 6.00792 19.9295 6.01216C19.928 6.02123 19.9263 6.0303 19.9248 6.03938C19.9241 6.04458 19.9231 6.04982 19.9221 6.05503C19.9207 6.06427 19.9189 6.07352 19.9175 6.08277C19.9165 6.08714 19.9157 6.09154 19.915 6.09591C19.9135 6.1034 19.9123 6.11087 19.9108 6.11834C19.9093 6.12655 19.9078 6.13475 19.9061 6.14296C19.9051 6.14906 19.9039 6.15518 19.9027 6.16128C19.9014 6.16781 19.9002 6.17436 19.8987 6.18089C19.8972 6.18943 19.8955 6.19797 19.8938 6.20648C19.8928 6.21034 19.8921 6.2142 19.8913 6.21806C19.8896 6.22698 19.8876 6.23588 19.8857 6.24477C19.8847 6.24993 19.8837 6.25508 19.8825 6.26022C19.881 6.26738 19.8795 6.27454 19.8778 6.28171C19.8761 6.28938 19.8746 6.29706 19.8729 6.30473C19.8714 6.31057 19.8701 6.31639 19.8689 6.32223C19.8672 6.32917 19.8657 6.33613 19.864 6.34307C19.862 6.35183 19.86 6.36057 19.8578 6.36931C19.8568 6.37401 19.8556 6.37871 19.8546 6.38339C19.8526 6.39119 19.8507 6.39899 19.8489 6.40676C19.8474 6.41238 19.846 6.41803 19.8448 6.42371L19.8381 6.45039L19.8352 6.46213L19.8285 6.48776L19.8241 6.50461L19.8174 6.52885L19.8137 6.54302C19.811 6.55245 19.8085 6.56185 19.8058 6.57123C19.8046 6.57529 19.8036 6.57936 19.8024 6.58342C19.8004 6.59086 19.7982 6.59831 19.796 6.60573C19.794 6.6131 19.7918 6.62049 19.7896 6.62786C19.7883 6.63253 19.7869 6.63723 19.7856 6.64191L19.7782 6.66678L19.7738 6.68126C19.7711 6.69 19.7684 6.69877 19.7659 6.70751L19.7622 6.7194C19.7597 6.72697 19.7573 6.73452 19.7551 6.74206C19.7524 6.75022 19.7499 6.75838 19.7472 6.76651L19.742 6.78287L19.7368 6.79852L19.7294 6.821C19.7267 6.82878 19.724 6.83658 19.7216 6.84433C19.7198 6.84915 19.7181 6.85398 19.7166 6.85878L19.7085 6.88246C19.7063 6.88846 19.7043 6.89448 19.7021 6.90045C19.7004 6.90513 19.6989 6.9098 19.6972 6.91448L19.6883 6.93935C19.6861 6.94507 19.6841 6.95078 19.6819 6.95653C19.6794 6.96374 19.6767 6.97098 19.674 6.9782C19.6725 6.98249 19.6708 6.98679 19.6693 6.99108C19.6661 6.99924 19.6632 7.00742 19.66 7.01557C19.6577 7.02159 19.6555 7.02764 19.6531 7.03366C19.6506 7.04045 19.6479 7.04723 19.6454 7.05399C19.6429 7.06006 19.6405 7.06611 19.6383 7.07215L19.6309 7.09063C19.6292 7.09538 19.6272 7.10013 19.6252 7.10485C19.622 7.11334 19.6186 7.12183 19.6151 7.13029C19.6134 7.13435 19.6117 7.13842 19.6102 7.14248C19.6067 7.15054 19.6035 7.15859 19.6001 7.16662C19.5976 7.173 19.5949 7.17935 19.5922 7.1857C19.5892 7.19246 19.5865 7.19922 19.5836 7.20595L19.5791 7.21662C19.5754 7.22538 19.5715 7.23415 19.5678 7.24289L19.5619 7.25623L19.5523 7.27844L19.5456 7.29322C19.5422 7.30112 19.5387 7.30903 19.535 7.3169C19.5336 7.32036 19.532 7.32376 19.5303 7.32712C19.5264 7.33588 19.5225 7.34465 19.5183 7.35339C19.518 7.3544 19.5175 7.35538 19.517 7.35631L19.5015 7.38982C19.4995 7.39368 19.4978 7.39754 19.4958 7.40141C19.4862 7.42204 19.4761 7.44259 19.4663 7.46304L19.4655 7.46467C19.4478 7.50053 19.4298 7.53615 19.4116 7.57153C19.3958 7.60184 19.3795 7.63198 19.3633 7.66193C19.3603 7.66724 19.3576 7.67258 19.3546 7.67789C19.3482 7.68957 19.3418 7.70124 19.3352 7.71285C19.329 7.7239 19.3229 7.73495 19.3165 7.74595C19.2422 7.87683 19.1622 8.00417 19.0767 8.1276C19.0735 8.13242 19.07 8.13723 19.0666 8.14205C19.056 8.15735 19.0454 8.17262 19.0346 8.18779C19.0304 8.19348 19.0264 8.19912 19.0222 8.20476C19.0038 8.23061 18.985 8.25627 18.9661 8.28174L18.9579 8.29241C18.953 8.29889 18.9483 8.30534 18.9434 8.3118C18.9409 8.31482 18.9387 8.31785 18.9365 8.32087C18.9313 8.32773 18.9259 8.33461 18.9207 8.34145C18.9077 8.35839 18.8943 8.37524 18.8813 8.39203L18.8754 8.39938L18.8635 8.41442L18.8502 8.43076C18.8478 8.43391 18.8453 8.43706 18.8426 8.44021C18.8379 8.44595 18.8335 8.45172 18.8288 8.45743C18.8246 8.46259 18.8202 8.46772 18.816 8.47285C18.8125 8.47722 18.8088 8.4816 18.8051 8.48596L18.7948 8.49852C18.782 8.51394 18.7689 8.52931 18.7559 8.54458C18.7519 8.5491 18.7482 8.55363 18.7443 8.55815L18.7317 8.57258L18.7206 8.58543C18.7076 8.60034 18.6945 8.61517 18.6814 8.62992C18.6775 8.63419 18.6738 8.63841 18.6699 8.64268L18.6566 8.65762C18.6538 8.66046 18.6514 8.66331 18.6487 8.66618C18.643 8.67248 18.6371 8.67875 18.6314 8.68503C18.628 8.68884 18.6243 8.69263 18.6208 8.69644C18.6157 8.70198 18.6105 8.70757 18.6056 8.71308L18.5937 8.72553L18.5812 8.73884L18.5686 8.75216C18.5637 8.75739 18.5585 8.7626 18.5536 8.76781L18.5454 8.77629L18.5277 8.79449C18.5245 8.79769 18.5215 8.80084 18.5183 8.80401C18.5131 8.80937 18.5077 8.81476 18.5026 8.8201C18.4984 8.82436 18.4942 8.82863 18.4897 8.83288C18.4853 8.83747 18.4806 8.84205 18.4762 8.84662C18.472 8.85071 18.4678 8.85478 18.4639 8.85887L18.4498 8.87269C18.4451 8.87718 18.4407 8.88163 18.436 8.8861C18.4316 8.8903 18.4274 8.89451 18.423 8.89871L18.4119 8.90943C18.4065 8.91481 18.4008 8.9202 18.3951 8.92556C18.3919 8.92869 18.3885 8.93184 18.3853 8.93499C18.3794 8.94048 18.3735 8.94595 18.3677 8.95143L18.3587 8.95989C18.3526 8.96553 18.3466 8.97114 18.3405 8.97673C18.3372 8.97986 18.3338 8.98299 18.3303 8.98611C18.3246 8.99148 18.3187 8.99681 18.3129 9.00211L18.305 9.0093C18.2982 9.01549 18.2913 9.02164 18.2845 9.02777L18.2761 9.03527L18.2585 9.05102L18.2467 9.06141L18.2303 9.07574L18.219 9.08552L18.2005 9.10153L18.1915 9.10925C18.1794 9.11956 18.1673 9.1298 18.1552 9.13997L18.1492 9.14493C18.138 9.1543 18.1268 9.16361 18.1155 9.17287C18.1119 9.17587 18.1082 9.17885 18.1045 9.18182C18.0995 9.18593 18.0945 9.19003 18.0895 9.19409L18.07 9.20979L18.0635 9.21502C18.0524 9.22391 18.0412 9.23275 18.03 9.24152L18.0133 9.25456L18.0028 9.26274L17.9853 9.27618L17.9715 9.28675C17.9655 9.29134 17.9594 9.29591 17.9534 9.30044L17.9447 9.30697C17.9339 9.31516 17.923 9.32328 17.9121 9.33134L17.8962 9.34295L17.8816 9.35362L17.8675 9.36386L17.8516 9.37527L17.8346 9.38741L17.8228 9.39575C17.8171 9.39976 17.8114 9.40375 17.8057 9.40771L17.7898 9.41884L17.7747 9.42918L17.7607 9.43881L17.7453 9.44928C17.7393 9.45331 17.7334 9.45733 17.7274 9.46132C17.7176 9.46796 17.7078 9.47451 17.6979 9.48099L17.6814 9.49184C17.6655 9.50223 17.6495 9.51256 17.6335 9.52281C17.6293 9.52547 17.6252 9.52811 17.621 9.53074C17.6158 9.53406 17.6105 9.53736 17.6053 9.54064C17.5988 9.54476 17.5923 9.54884 17.5858 9.55289L17.5761 9.55886C17.5687 9.56343 17.5613 9.56799 17.5539 9.57253L17.5417 9.57998L17.5248 9.59027L17.5109 9.59862L17.494 9.60866L17.4756 9.61951L17.4611 9.628L17.4449 9.63742L17.4267 9.64786L17.4142 9.65498C17.4076 9.65877 17.4009 9.66253 17.3943 9.66626L17.379 9.67477C17.3744 9.67738 17.3697 9.67997 17.365 9.68254C17.3592 9.68578 17.3534 9.68899 17.3475 9.69217L17.3269 9.70343L17.3184 9.70798L17.2962 9.71987L17.284 9.72632L17.2615 9.73819L17.2499 9.74421L17.2325 9.75325L17.2173 9.76098L17.1973 9.77116L17.1809 9.77935L17.1666 9.78646C17.1589 9.79029 17.1511 9.79409 17.1434 9.79787L17.1335 9.80269L17.1161 9.8111C17.1037 9.81707 17.0912 9.82298 17.0787 9.82884L17.066 9.83484L17.0434 9.8453L17.0305 9.85125L17.0092 9.8609L16.997 9.86639C16.989 9.86998 16.981 9.87354 16.973 9.87706L16.9638 9.88113C16.9402 9.89147 16.9164 9.90167 16.8926 9.91172L16.8762 9.91858L16.8581 9.92607L16.838 9.93425L16.8229 9.94038L16.8084 9.94617C16.8007 9.94923 16.7931 9.95228 16.7854 9.95529L16.7716 9.96068C16.7659 9.96293 16.7601 9.96517 16.7543 9.96738L16.7337 9.97524L16.7167 9.98166L16.6964 9.98923L16.6848 9.99353L16.663 10.0015L16.6459 10.0076C16.6399 10.0098 16.6338 10.0119 16.6278 10.014C16.6166 10.018 16.6054 10.022 16.5941 10.0258L16.5736 10.0329L16.5638 10.0361C16.5557 10.0389 16.5477 10.0416 16.5396 10.0443C16.5336 10.0463 16.5275 10.0482 16.5214 10.0502L16.5038 10.056L16.4855 10.0618C16.4799 10.0636 16.4743 10.0654 16.4687 10.0672C16.4623 10.0692 16.4559 10.0712 16.4494 10.0732C16.4435 10.075 16.4376 10.0769 16.4317 10.0787L16.4153 10.0836L16.3946 10.0898L16.3795 10.0943L16.3598 10.1001L16.3397 10.1058L16.3243 10.1102L16.3036 10.1159L16.2853 10.1209C16.2801 10.1224 16.2748 10.1238 16.2695 10.1252L16.2515 10.13C16.2421 10.1325 16.2326 10.1349 16.2232 10.1374L16.2141 10.1397L16.1901 10.1457L16.1766 10.1491C16.1669 10.1515 16.1573 10.1539 16.1476 10.1562L16.1409 10.1578L16.1154 10.1638L16.102 10.1669L16.0821 10.1715L16.0649 10.1753L16.0428 10.1801L16.0278 10.1834C16.0212 10.1848 16.0145 10.1862 16.0079 10.1876L15.9898 10.1914C15.9547 10.1986 15.9195 10.2054 15.8842 10.2118L15.8777 10.213L15.8633 10.2156C15.843 10.2192 15.8227 10.2227 15.8024 10.226C15.7938 10.2274 15.7852 10.2288 15.7766 10.2301L15.7634 10.2323C15.7425 10.2355 15.7216 10.2386 15.7006 10.2416L15.6867 10.2436C15.6631 10.2469 15.6395 10.25 15.6158 10.253L15.6105 10.2536C15.5794 10.2575 15.5483 10.261 15.5172 10.2642C15.4969 10.2664 15.4765 10.2684 15.4561 10.2703H20V15.4257H11.8667L11.8774 15.2938L12.3203 14.1977L12.5368 13.1829L12.5762 12.9292L12.6549 12.7161C12.6545 12.7143 12.578 12.378 12.6549 12.1883C12.6986 12.0808 12.7783 12.0521 12.8223 11.9448C12.8737 11.8193 12.8271 11.728 12.8715 11.5997C12.922 11.4537 13.0187 11.4072 13.0782 11.2648C13.1557 11.0792 13.1233 10.9519 13.1766 10.7574C13.2581 10.4599 13.4321 10.3331 13.4719 10.0267C13.4923 9.86959 13.4467 9.77716 13.4719 9.62078C13.4971 9.46419 13.5992 9.23644 13.5998 9.23512C13.6005 9.23317 13.752 8.80259 13.7967 8.51457C13.8271 8.31828 13.7955 8.20151 13.8361 8.00717C13.8818 7.78767 14.0043 7.69184 14.0329 7.46927C14.0709 7.17409 13.9049 6.71831 13.9049 6.71831C13.9045 6.71757 13.8613 6.64534 13.7967 6.63711C13.7289 6.62849 13.5637 6.6775 13.563 6.67771L13.4897 6.95177C13.4274 4.93993 11.826 3.32868 9.85967 3.32868C7.85385 3.32868 6.2278 5.0053 6.2278 7.0735C6.2278 7.23804 6.2381 7.40009 6.25803 7.55901L6.2278 7.56063L5.99156 7.75345C5.99154 7.7536 5.93087 8.29122 5.99156 8.62621C6.04235 8.90653 6.22696 9.31447 6.2278 9.3163L6.62147 10.4225V10.8386L6.79866 12.1173C6.79866 12.1173 6.85891 13.1041 7.08408 13.6801C7.299 14.23 7.87967 14.9568 7.88132 14.9589C7.88113 14.9592 7.79562 15.0908 7.75339 15.1821C7.7143 15.2666 7.68754 15.3473 7.67042 15.4257H0V10.2804C0 10.2643 7.36138e-05 10.2482 0.000221461 10.2321L0.000443298 10.212C0.000706138 10.1915 0.00107571 10.171 0.00155211 10.1505C0.00360043 10.0668 0.00756882 9.98311 0.0134539 9.8996C0.0136181 9.89746 0.0137661 9.89532 0.0138975 9.89317L0.0153023 9.87462C0.0180403 9.83825 0.0211698 9.8019 0.0246905 9.7656C0.0257418 9.75481 0.0268094 9.74403 0.0278936 9.73326L0.029052 9.72198C0.0298898 9.71395 0.0307602 9.70592 0.0316637 9.69789C0.0323372 9.69149 0.0330355 9.68509 0.0337584 9.67871L0.0357541 9.66153C0.0367562 9.65271 0.0377993 9.64388 0.0388835 9.63506L0.0415448 9.61354L0.0435406 9.59778C0.0448877 9.58732 0.0462676 9.57687 0.0476803 9.56646L0.0493317 9.55398L0.0520915 9.5345C0.0530443 9.52757 0.0540214 9.52065 0.0550235 9.51374C0.056502 9.50366 0.0580054 9.49358 0.0595332 9.4835L0.0612086 9.47225L0.0645595 9.45075L0.0680345 9.42868L0.0710898 9.41018L0.0750077 9.3866L0.0778908 9.37009L0.0822027 9.34531L0.0855791 9.32672C0.0870576 9.31852 0.0885603 9.31033 0.0900881 9.30215L0.0923057 9.29041C0.0942441 9.28008 0.0962236 9.26976 0.0982442 9.25946L0.100857 9.2462C0.102466 9.238 0.104101 9.22982 0.10576 9.22166L0.10921 9.20481L0.114286 9.1805L0.117785 9.16408L0.122885 9.14053L0.127642 9.11922L0.131683 9.1012L0.13666 9.07958L0.140997 9.06091C0.145887 9.04013 0.150914 9.01939 0.156078 8.99868L0.160858 8.97968C0.162993 8.97118 0.165162 8.96268 0.167363 8.9542L0.170813 8.94086L0.177245 8.91639L0.180941 8.90262C0.18329 8.89391 0.185655 8.88521 0.188037 8.87652L0.192325 8.8609L0.198362 8.83935L0.203388 8.8217L0.210534 8.797L0.214871 8.78219L0.221303 8.76054L0.229237 8.73432L0.23313 8.72154L0.239858 8.69997L0.245082 8.68325L0.252104 8.66127C0.258416 8.64157 0.264855 8.6219 0.271423 8.60228L0.276597 8.58688L0.285148 8.56183L0.289978 8.54788L0.297863 8.52522L0.304048 8.50776L0.312204 8.48505L0.317477 8.47052L0.325535 8.44851L0.331621 8.43225C0.33466 8.42404 0.337741 8.41582 0.340862 8.40761L0.343868 8.39981C0.352361 8.3775 0.360994 8.35526 0.369766 8.33309L0.378218 8.312L0.38354 8.29879C0.386694 8.291 0.389881 8.28321 0.393101 8.27542L0.400075 8.25844C0.401833 8.25421 0.403606 8.24999 0.405397 8.24579C0.414021 8.22507 0.422777 8.20444 0.431665 8.1839C0.440306 8.164 0.449062 8.14416 0.457932 8.12439L0.46429 8.11017L0.473382 8.09022L0.481391 8.07277C0.483329 8.06855 0.485284 8.06435 0.487256 8.06017C0.536369 7.9544 0.589001 7.8504 0.645058 7.74837L0.664746 7.71285C0.679958 7.68566 0.695408 7.65865 0.711096 7.6318C1.5145 6.25483 2.92536 5.29743 4.56131 5.15386C4.68955 5.14265 4.81816 5.13647 4.94685 5.13534L4.99014 5.13513H0C0.000401157 4.89479 0.0169749 4.65477 0.0496024 4.41679C0.0641957 4.31063 0.0820118 4.20497 0.103025 4.09997C0.150683 3.86178 0.214782 3.62741 0.294832 3.39865C0.298282 3.38879 0.301764 3.37895 0.30528 3.36913C0.322783 3.32003 0.341028 3.27122 0.360008 3.2227C0.375146 3.18399 0.390736 3.14547 0.406777 3.10715C0.450738 3.00213 0.498126 2.89868 0.548859 2.79696C0.613079 2.66807 0.682563 2.54205 0.757126 2.41923C0.926752 2.13977 1.12197 1.87772 1.34011 1.63668C1.48975 1.47128 1.64972 1.31615 1.81901 1.17229C1.9269 1.08063 2.03847 0.993682 2.15342 0.911662C2.20277 0.876438 2.25272 0.842133 2.30326 0.808763C2.7647 0.503952 3.27191 0.280048 3.80431 0.146142C4.16111 0.0565814 4.52641 0.00788602 4.89357 0.000940036C4.92571 0.000313324 4.9579 0 4.99014 0H15.0098L15.0421 7.61798e-05Z" fill="white"/>
</svg>
