<svg width="152" height="25" viewBox="0 0 152 25" fill="none" xmlns="http://www.w3.org/2000/svg">
<path d="M43.8334 1.59739C39.0553 1.59739 34.785 4.07438 34.785 8.64978C34.785 13.8975 42.3582 14.2599 42.3582 16.8965C42.3582 18.0067 41.0863 19.0003 38.9131 19.0003C35.8299 19.0003 33.5253 17.612 33.5253 17.612L32.5391 22.2298C32.5391 22.2298 35.1939 23.4026 38.7185 23.4026C43.9426 23.4026 48.0538 20.8044 48.0538 16.1501C48.0538 10.6047 40.4491 10.2531 40.4491 7.80638C40.4491 6.9367 41.4932 5.98417 43.6596 5.98417C46.1043 5.98417 48.0983 6.99396 48.0983 6.99396L49.0636 2.53443C49.0636 2.53443 46.8931 1.59739 43.8328 1.59739H43.8334ZM0.115867 1.93421L0 2.60718C0 2.60718 2.01016 2.97499 3.82092 3.70926C6.15241 4.55065 6.31812 5.04106 6.71086 6.56215L10.9892 23.055H16.7246L25.5601 1.93421H19.8382L14.1607 16.2943L11.844 4.12154C11.6318 2.72844 10.5554 1.93353 9.23838 1.93353H0.116541L0.115867 1.93421ZM27.8613 1.93421L23.3728 23.055H28.8293L33.3017 1.93421H27.8613ZM58.2939 1.93421C56.9783 1.93421 56.2811 2.63884 55.7698 3.86959L47.7756 23.055H53.4976L54.6044 19.8572H61.5752L62.2482 23.055H67.2972L62.8929 1.93421H58.2939ZM59.0383 7.64066L60.7345 15.5661H56.1908L59.039 7.64066H59.0383Z" fill="white"/>
<line x1="75.7972" y1="2.18557e-08" x2="75.7972" y2="25" stroke="white"/>
<path d="M131.149 3.43238C131.149 3.43238 129.868 3.94211 128.379 5.58345C126.89 7.22479 126.023 9.07046 126.664 9.56131C126.911 9.74788 127.48 9.78341 128.511 8.85058C129.463 8.02394 130.211 6.98769 130.695 5.82332C131.361 4.19864 131.149 3.45237 131.149 3.4346M139.299 6.38524C137.644 5.53681 136.435 4.49736 135.177 3.85438C133.976 3.23804 133.2 2.9804 132.229 3.11033C132.094 3.13447 131.96 3.16786 131.829 3.21028C131.829 3.21028 132.329 4.91714 130.34 7.78449C128.326 10.6918 126.498 10.6718 125.978 9.87336C125.434 9.03048 126.137 7.31252 127.311 5.78334C128.54 4.1842 130.699 2.85824 130.699 2.85824C130.699 2.85824 130.01 2.43736 128.32 3.39573C126.671 4.32634 123.833 6.54737 121.199 10.2931C118.564 14.0389 118.042 16.1 117.665 17.7225C117.287 19.3449 117.63 21.0829 119.429 21.0829C121.229 21.0829 123.323 18.3388 123.914 17.3849C125.012 15.6081 125.728 12.8829 124.234 13.2571C123.497 13.4414 122.901 14.2566 122.524 15.0417C122.287 15.546 122.105 16.0748 121.983 16.6186C121.46 16.8339 120.97 17.1193 120.524 17.4671C120.029 17.834 119.566 18.2426 119.141 18.6886C119.141 18.6886 119.147 17.3916 120.181 15.2927C121.215 13.1938 123.113 12.2354 124.188 12.1455C125.156 12.0677 126.417 12.8895 125.349 15.9212C124.28 18.9529 121.129 22.6387 117.818 22.6843C114.763 22.7265 112.764 18.8274 117.016 12.0233C121.723 4.50625 127.243 2.19971 129.035 1.94318C130.828 1.68665 131.411 2.47734 131.411 2.47734C132.49 2.03469 133.655 1.84256 134.819 1.91542C137.008 2.06312 138.7 3.61228 140.935 4.70059C140.354 5.25585 139.8 5.83887 139.3 6.38524M149.132 3.85438C147.615 4.82719 145.517 5.70894 143.5 5.52015C142.989 6.04764 142.443 6.65843 141.895 7.32473C145.392 8.01658 148.456 5.84997 150.085 4.00541C150.679 3.34222 151.189 2.6086 151.604 1.82102C150.863 2.59355 150.033 3.27603 149.131 3.85438M144.475 13.7069C144.501 13.6608 144.523 13.612 144.539 13.5614C144.529 13.4813 144.491 13.4072 144.433 13.3514C144.375 13.2956 144.299 13.2616 144.218 13.2549C143.885 13.2393 143.431 13.3026 142.239 14.6219C141.251 15.7114 140.4 16.9183 139.706 18.2156C139.025 19.4615 138.748 20.3899 139.14 20.6298C139.267 20.6958 139.415 20.7109 139.553 20.672C139.819 20.6087 140.119 20.36 140.577 19.8302C140.791 19.5815 141.029 19.2295 141.313 18.8397C142.102 17.7669 144.083 14.3898 144.475 13.7069ZM132.097 15.1416C132.296 14.6219 132.549 13.6014 132.023 13.2005C131.457 12.7751 130.016 13.7735 130.008 14.7974C129.998 15.8457 131.023 16.3199 131.269 16.3865C131.409 16.4243 131.457 16.4187 131.525 16.3066C131.743 15.932 131.934 15.5427 132.097 15.1416ZM131.007 17.0484C130.649 16.8835 130.316 16.6709 130.016 16.4165C129.715 16.164 129.463 15.8579 129.274 15.5137C129.254 15.4804 129.234 15.5059 129.212 15.5359C129.19 15.5659 129.101 15.6469 128.332 16.773C127.564 17.8991 126.384 20.2322 127.452 20.6298C128.136 20.8841 129.274 19.6859 129.895 18.8919C130.318 18.3376 130.701 17.7543 131.042 17.1461C131.074 17.0784 131.042 17.0628 131.008 17.0484M143.126 19.7436C142.836 20.2078 142.505 21.0984 143.459 20.5443C144.626 19.8702 146.288 17.3482 146.288 17.3482H147.042C146.356 18.4032 145.592 19.4055 144.757 20.3466C143.574 21.657 142.132 22.8475 141.116 22.7298C139.928 22.591 140.3 21.0329 140.3 21.0329C140.3 21.0329 138.603 22.8408 137.428 22.7109C135.841 22.5355 136.325 20.5743 136.325 20.5743C136.325 20.5743 134.53 22.7764 133.308 22.7087C131.391 22.5976 131.873 20.2656 132.406 18.6231C132.691 17.7447 132.956 17.0551 132.956 17.0551C132.956 17.0551 132.766 17.105 132.357 17.1661C132.144 17.1961 131.755 17.2183 131.755 17.2183C131.755 17.2183 130.957 18.6264 130.318 19.4727C129.68 20.3189 126.965 23.2362 125.369 22.6521C123.892 22.1123 124.38 19.8513 125.24 18.0545C126.495 15.4348 130.024 11.6713 132.059 12.1688C134.169 12.6807 132.107 16.5309 132.107 16.5309C132.107 16.5309 132.107 16.5453 132.129 16.5553C132.172 16.5709 132.281 16.5831 132.536 16.5331C132.799 16.4794 133.058 16.4024 133.308 16.3032C133.308 16.3032 135.429 11.8612 137.772 8.95497C140.115 6.04875 144.789 1.04366 146.624 2.25412C147.068 2.55174 146.868 3.57675 146.264 4.82052C145.992 4.90891 145.715 4.98304 145.436 5.04263C145.84 4.30858 146.107 3.69002 146.187 3.25803C146.464 1.75661 142.958 4.9238 140.453 8.32642C138.944 10.3777 137.603 12.5477 136.444 14.8152C136.896 14.5391 137.328 14.2307 137.736 13.8923C138.854 12.9657 139.916 11.9742 140.917 10.9228C141.881 9.93599 142.785 8.89247 143.624 7.79781C143.891 7.78491 144.157 7.75748 144.42 7.71564C143.505 8.95788 142.507 10.137 141.433 11.2449C140.434 12.2554 139.352 13.3426 138.413 14.1322C137.573 14.8458 136.688 15.5035 135.763 16.1011C135.763 16.1011 133.572 20.5199 134.763 20.8031C135.464 20.9718 136.848 18.8408 136.848 18.8408C136.848 18.8408 138.654 16.0856 139.742 14.8429C141.227 13.1549 142.505 12.1777 143.782 12.1599C144.526 12.1466 144.965 12.9373 144.965 12.9373L145.314 12.3953H147.469C147.469 12.3953 143.445 19.2228 143.123 19.737M149.131 3.85438C147.614 4.82719 145.515 5.70894 143.499 5.52015C142.988 6.04764 142.442 6.65843 141.894 7.32473C145.391 8.01658 148.455 5.84997 150.084 4.00541C150.678 3.34228 151.189 2.60866 151.604 1.82102C150.863 2.59355 150.033 3.27603 149.131 3.85438ZM118.875 7.20369H116.826L115.668 9.07491H117.717L118.875 7.20369ZM109.174 13.6835C110.046 12.4886 112.451 8.30088 112.451 8.30088C112.441 8.22089 112.404 8.1468 112.345 8.09101C112.287 8.03522 112.212 8.00111 112.131 7.99437C111.798 7.97883 111.243 8.09099 110.14 9.47136C109.037 10.8517 108.181 11.95 107.557 13.0927C106.873 14.3399 106.574 15.2194 106.967 15.4581C107.095 15.5221 107.241 15.5371 107.379 15.5003C107.635 15.4359 107.969 15.1794 108.428 14.6519C108.643 14.4054 108.887 14.0733 109.174 13.6835ZM98.1798 8.01992C97.6134 7.59237 96.1731 8.59294 96.1653 9.61462C96.1564 10.6641 97.4613 10.985 97.6301 10.9928C97.6797 10.9969 97.7295 10.9865 97.7733 10.9628C97.8034 10.9452 97.8275 10.9189 97.8422 10.8873C97.9956 10.5858 98.1335 10.2767 98.2553 9.9611C98.4541 9.44137 98.7062 8.42081 98.1798 8.01992ZM97.3258 11.6324C96.9353 11.5104 96.562 11.3387 96.2153 11.1216C95.8792 10.9025 95.606 10.5998 95.4224 10.2432C95.4024 10.2099 95.3802 10.2354 95.3602 10.2654C95.3402 10.2954 95.2247 10.4397 94.454 11.5702C93.6833 12.7007 92.5417 15.0128 93.6111 15.4104C94.293 15.6691 95.4446 14.4609 96.0698 13.6702C96.5377 13.0489 96.97 12.4015 97.3647 11.7313C97.3902 11.6635 97.3647 11.648 97.3269 11.6358M114.06 12.3287H114.811C114.811 12.3287 111.05 17.7702 108.925 17.517C107.739 17.3782 108.091 15.9146 108.091 15.9146C108.091 15.9146 106.425 17.8646 104.895 17.4693C103.507 17.1128 104.403 14.8041 104.403 14.8041C104.245 14.8673 101.241 18.2533 99.1304 17.4415C96.9216 16.5886 98.0687 13.7535 98.4885 12.9006C98.845 12.1821 99.2392 11.4825 99.2392 11.4825C99.2392 11.4825 98.9005 11.578 98.6839 11.6269C98.4674 11.6757 98.1542 11.7379 98.1542 11.7379C98.1542 11.7379 97.1092 13.4359 96.4707 14.2832C95.8321 15.1305 93.118 18.0423 91.5189 17.4626C89.9198 16.8829 90.3162 14.6452 91.2146 12.8684C92.6716 9.98664 96.1287 6.44521 98.2109 6.9827C100.314 7.51907 98.5729 10.9306 98.5729 10.9306C98.5729 10.9306 98.9916 10.985 99.9944 10.3009C101.438 9.31589 103.344 6.6662 105.407 6.97714C106.38 7.12373 107.286 8.11764 106.047 10.0055C105.651 10.6119 104.988 11.1538 104.481 10.6174C104.164 10.2843 104.441 9.6768 104.773 9.26147C104.902 9.09216 105.071 8.95722 105.265 8.86853C105.458 8.77984 105.671 8.74012 105.883 8.75286C105.883 8.75286 106.224 7.9755 105.357 7.9866C104.655 7.99993 102.878 9.63572 101.876 11.2882C100.956 12.8051 99.5624 15.3893 100.962 15.9523C102.244 16.4698 104.685 13.5725 105.816 12.0544C106.946 10.5363 109.523 7.09597 111.684 6.95826C112.428 6.9094 112.871 7.58793 112.871 7.58793L113.121 7.19258H115.282C115.282 7.19258 111.212 13.9845 110.894 14.4987C110.644 14.9007 110.312 15.8046 111.227 15.2982C112.142 14.7918 114.06 12.3287 114.06 12.3287ZM112.884 23.2118C111.293 22.1103 109.388 21.5543 107.454 21.6271C106.93 21.6413 106.418 21.7788 105.957 22.0283C105.497 22.2777 105.102 22.6322 104.804 23.063C103.98 21.6248 102.351 20.742 99.8322 20.762C95.7622 20.8086 91.7255 22.6854 88.5272 22.6832C85.4622 22.6832 83.2267 20.7564 83.2989 17.3349C83.4333 11.3304 88.5072 5.92326 92.294 3.49013C94.4773 2.09199 96.303 1.67666 97.4968 1.81103C98.3675 1.90764 99.4147 2.91377 98.7539 4.39631C97.7833 6.56292 96.4429 6.38524 96.4929 5.34913C96.5207 4.67505 96.9693 4.25083 97.3069 4.01651C97.5212 3.86881 97.8999 3.82661 98.0976 3.82217C98.2897 3.66004 98.4308 2.47401 96.876 2.8638C95.3213 3.25359 93.4334 4.7861 91.6411 6.76615C89.8487 8.74619 87.058 12.4886 86.3683 16.4187C86.0463 18.2411 86.2573 21.5649 90.5783 21.5271C94.243 21.4971 99.6445 19.084 104.609 19.1339C106.535 19.1528 108.212 19.6725 109.519 20.4788C110.803 21.2695 112.342 22.4244 112.889 23.2129" fill="white"/>
</svg>
